<svg width="164" height="164" viewBox="0 0 164 164" fill="none" xmlns="http://www.w3.org/2000/svg">
<circle cx="82" cy="82" r="82" fill="#CFDFFF"/>
<g clip-path="url(#clip0_53_5647)">
<path d="M71.5952 20.7803H25.9429C21.541 20.7803 17.9727 24.3433 17.9727 28.7385V77.3533C17.9727 81.7485 21.541 85.3115 25.9429 85.3115H71.5952C75.997 85.3115 79.5654 81.7485 79.5654 77.3533V28.7385C79.5654 24.3433 75.997 20.7803 71.5952 20.7803Z" fill="white"/>
<path d="M98.7448 117.539C98.7448 117.539 91.729 110.243 88.4089 104.15C85.0888 98.0575 85.4513 95.2798 84.5018 92.5442C83.5523 89.8087 80.4387 83.7158 79.2339 81.2692C78.0291 78.8227 73.5058 72.4408 71.7612 71.9424C70.0166 71.444 70.267 74.264 70.8897 75.0919C71.5124 75.9199 74.1269 80.6458 74.4602 81.6832C74.7935 82.7206 74.7919 83.4236 74.7919 83.4236C74.7919 83.4236 73.2147 81.5176 71.1807 83.0502C69.1467 84.5827 71.3466 87.4433 71.3466 87.4433C71.3466 87.4433 70.6816 86.2419 69.3955 87.0293C68.1094 87.8167 68.7305 90.8428 69.0638 91.0912C69.0638 91.0912 67.6102 90.9256 67.4037 92.252C67.1972 93.5784 68.3581 95.9827 70.9742 100.17C73.5903 104.357 76.7446 106.844 77.5331 108.045C78.3217 109.246 89.1568 128.811 92.685 131.589L98.7464 117.538L98.7448 117.539Z" fill="#F6C6DE"/>
<path d="M81.1392 92.9972L74.66 83.5226C74.5478 83.357 74.7868 83.1671 74.9217 83.3294C74.9217 83.3294 82.0904 92.2926 82.092 92.2926C82.5749 92.942 81.6237 93.6498 81.1392 92.9956V92.9972Z" fill="#EA9DC4"/>
<path d="M75.356 92.8248L71.0962 87.3976C70.9693 87.2352 71.2116 87.0323 71.3482 87.193L75.8064 92.4595C76.0503 92.7583 75.6032 93.1268 75.356 92.8248Z" fill="#EA9DC4"/>
<path d="M72.3886 94.937L69.0002 91.2485C68.862 91.0975 69.0848 90.8783 69.2343 91.0228L72.8211 94.5198C73.1056 94.8087 72.6699 95.2325 72.3886 94.9386V94.937Z" fill="#EA9DC4"/>
<path d="M66.8346 31.2402H62.4202C61.1595 31.2402 60.1375 32.2607 60.1375 33.5196V71.9406C60.1375 73.1994 61.1595 74.2199 62.4202 74.2199H66.8346C68.0953 74.2199 69.1174 73.1994 69.1174 71.9406V33.5196C69.1174 32.2607 68.0953 31.2402 66.8346 31.2402Z" fill="#F7A713"/>
<path d="M54.0923 40.5249H51.4063C50.1456 40.5249 49.1235 41.5454 49.1235 42.8043V71.1841C49.1235 72.443 50.1456 73.4635 51.4063 73.4635H54.0923C55.3531 73.4635 56.3751 72.443 56.3751 71.1841V42.8043C56.3751 41.5454 55.3531 40.5249 54.0923 40.5249Z" fill="#F7A713"/>
<path d="M42.5223 48.8145H39.4493C38.1885 48.8145 37.1665 49.835 37.1665 51.0938V71.1842C37.1665 72.4431 38.1885 73.4636 39.4493 73.4636H42.5223C43.783 73.4636 44.805 72.4431 44.805 71.1842V51.0938C44.805 49.835 43.783 48.8145 42.5223 48.8145Z" fill="#F7A713"/>
<path d="M30.5117 56.3862H28.159C26.8983 56.3862 25.8762 57.4067 25.8762 58.6656V71.1841C25.8762 72.443 26.8983 73.4635 28.159 73.4635H30.5117C31.7724 73.4635 32.7945 72.443 32.7945 71.1841V58.6656C32.7945 57.4067 31.7724 56.3862 30.5117 56.3862Z" fill="#F7A713"/>
<path d="M101.982 25.9346C101.982 25.9346 94.1775 26.9298 92.1841 33.6444C90.1908 40.3591 90.4412 47.0738 88.199 49.3125C85.9569 51.5513 84.6562 53.0432 84.518 54.1488C84.3798 55.2544 85.0155 56.1944 86.178 56.774C87.3405 57.3536 87.9763 58.0176 87.5617 59.3163C87.1471 60.6151 86.2333 60.5599 87.0089 62.4107C87.7844 64.2614 87.9779 65.8654 87.7291 67.2194C87.4804 68.5733 86.7877 71.5297 90.2477 72.7181C93.7076 73.9064 97.7756 72.4697 99.6015 72.994C101.427 73.5184 102.535 77.2768 102.923 79.2671C103.312 81.2575 104.307 83.1359 103.92 86.3958L103.533 89.6573C103.533 89.6573 122.574 84.131 123.902 80.5659C125.231 77.0008 121.494 52.2137 121.494 52.2137L101.983 25.9346H101.982Z" fill="#F6C6DE"/>
<path d="M91.3971 139.55C91.3971 139.55 112.942 138.803 118.67 139.55C124.398 140.297 137.102 140.668 139.718 138.058C142.334 135.447 140.092 95.9028 133.367 78.9911C126.642 62.0795 122.78 79.4879 114.81 83.3437C106.84 87.1994 103.852 86.9786 103.852 86.9786C103.852 86.9786 87.9112 90.1817 91.3971 139.55Z" fill="#E7F0FB"/>
<path d="M131.248 100.628C131.248 100.628 145.197 104.111 150.925 93.1668C156.653 82.223 147.438 77.6237 144.698 73.6429C141.958 69.6622 146.192 68.5453 144.823 62.4508C143.454 56.3563 138.721 53.0005 137.599 51.1352C136.477 49.2698 137.474 37.3325 132.494 31.6113C127.514 25.8902 121.854 18.8054 109.068 21.2926C96.2815 23.7797 93.2589 28.4537 93.5532 30.8142C93.5532 30.8142 94.2621 29.2784 95.5076 28.3936C95.5076 28.3936 94.5109 31.7786 97.3757 37.1263C100.241 42.474 101.642 42.349 104.344 44.6705C107.047 46.9921 108.46 53.1678 108.46 53.1678C108.46 53.1678 111.324 49.3542 115.101 50.7228C118.878 52.0914 118.173 57.6031 116.555 59.095C114.937 60.587 113.732 62.7008 111.407 62.9492C111.407 62.9492 109.208 66.1815 111.656 70.8668C114.105 75.5521 116.389 77.2503 117.718 78.8673C119.046 80.4842 119.96 80.6904 118.88 84.8773C117.8 89.0643 118.383 98.1411 131.252 100.628H131.248Z" fill="#EB672B"/>
<path d="M91.5208 41.7408C91.5208 41.7408 95.5059 39.6401 99.104 45.5543" stroke="#26377F" stroke-width="1.5" stroke-linecap="round" stroke-linejoin="round"/>
<path d="M93.3482 50.4183C93.9597 50.4183 94.4555 49.5025 94.4555 48.3727C94.4555 47.243 93.9597 46.3271 93.3482 46.3271C92.7367 46.3271 92.241 47.243 92.241 48.3727C92.241 49.5025 92.7367 50.4183 93.3482 50.4183Z" fill="#26377F"/>
<path d="M86.8105 61.8525C86.8105 61.8525 88.0901 63.6254 91.5208 62.3542" stroke="#26377F" stroke-width="1.5" stroke-linecap="round" stroke-linejoin="round"/>
<path d="M97.9968 72.8887C97.9968 72.8887 102.26 71.9163 105.304 68.9876C108.347 66.0588 103.13 74.2021 101.062 74.22C101.062 74.22 100.278 72.3222 97.9968 72.8904V72.8887Z" fill="#EA9DC4"/>
<path d="M114.436 110.069C114.436 110.069 115.267 124.66 115.599 131.126C115.931 137.592 115.599 140.41 115.599 140.41H112.111C112.111 140.41 112.942 135.767 112.776 125.239C112.61 114.711 114.436 110.068 114.436 110.068V110.069Z" fill="#89BBE6"/>
</g>
<defs>
<clipPath id="clip0_53_5647">
<rect width="134.795" height="119.63" fill="white" transform="translate(17.9727 20.7803)"/>
</clipPath>
</defs>
</svg>
