<svg width="164" height="164" viewBox="0 0 164 164" fill="none" xmlns="http://www.w3.org/2000/svg">
<circle cx="82" cy="82" r="82" fill="#F3F2FF"/>
<g clip-path="url(#clip0_53_5566)">
<path d="M60.8289 51.2815C60.8289 51.2815 53.4796 44.1024 43.5034 48.672C33.5272 53.2416 37.3347 58.5799 31.5601 61.6546C25.7855 64.7294 25.6981 67.1668 25.6981 69.691C25.6981 72.2153 27.7098 76.4798 23.2477 78.6989C18.7857 80.9181 17.9101 85.0956 19.3974 89.7095C20.8848 94.3234 13.6228 94.4956 14.0598 100.326C14.4967 106.157 21.4965 109.431 21.4965 109.431L67.4346 113.12L73.2966 98.0629C73.2966 98.0629 76.0965 74.3032 73.7335 67.252C71.3706 60.2008 71.8092 57.6782 69.8832 55.5017C67.9572 53.3251 63.4078 51.1486 60.8272 51.2798L60.8289 51.2815Z" fill="#EB672B"/>
<path d="M67.1521 157.534C69.0644 149.138 72.0956 135.175 73.5247 125.094C74.3935 118.956 74.6676 114.255 73.7355 113.12C73.6841 113.057 73.6309 112.996 73.5778 112.933C72.4743 111.67 70.7556 110.407 68.9324 109.275C68.1682 108.801 67.3851 108.349 66.6209 107.932C63.5674 106.26 60.8291 105.114 60.8291 105.114C60.8291 105.114 59.0933 108.392 49.0023 109.03C38.9096 109.669 30.5099 102.358 30.5099 102.358C28.2994 102.358 23.6215 104.48 20.0111 108.591C18.3832 110.446 16.973 112.704 16.1025 115.355C15.1892 118.138 14.7025 120.94 14.4609 123.459C26.4265 140.243 44.2096 153.357 62.762 156.883L67.1521 157.534Z" fill="#F4F8FD"/>
<path d="M130.066 123.479C130.011 123.641 129.958 123.791 129.908 123.929C129.701 124.512 129.559 124.87 129.559 124.87L128.676 124.899L74.8713 126.697L73.5245 125.093L68.3736 118.964L65.5103 115.557C65.5103 115.557 65.3921 114.531 65.512 112.965C65.6165 111.593 65.9061 109.805 66.6207 107.932C66.9428 107.086 67.3523 106.224 67.8715 105.375C70.8479 100.5 67.6968 100.5 69.0967 95.975C70.4967 91.4498 73.0344 89.6209 73.8226 79.4387C74.1859 74.7464 73.8415 71.4943 74.078 68.5525C74.3521 65.1095 75.4179 62.091 79.3351 57.6799C86.597 49.4987 93.1599 50.8043 100.334 52.7183C107.509 54.6341 111.796 66.3827 114.072 70.9966C116.347 75.6088 121.421 74.0424 122.122 78.5677C122.821 83.093 118.534 86.662 122.998 91.2742C127.46 95.8881 130.26 96.4096 129.209 104.156C128.159 111.903 129.823 112.772 131.223 114.949C132.251 116.546 130.871 121.148 130.066 123.479Z" fill="#253671"/>
<path d="M83.2438 61.6531C83.2438 61.6531 85.7816 65.0773 89.1349 66.3232C92.4883 67.5691 94.8513 68.2663 95.23 68.2083C95.6087 68.1504 95.4339 73.2568 98.6725 76.0708C101.911 78.8848 102.727 79.0587 102.727 79.0587C102.727 79.0587 104.039 76.6793 106.577 76.4765C109.115 76.2737 109.901 79.841 109.726 81.9306C109.552 84.0203 108.327 86.1082 106.956 86.8633C105.585 87.6183 104.185 87.6763 104.185 87.6763C104.185 87.6763 101.676 91.9987 102.377 95.8286C103.078 99.6584 103.018 100.732 105.643 103.168C108.268 105.603 112.177 106.359 112.177 106.359C112.177 106.359 105.818 118.659 94.0939 118.833C82.3699 119.007 80.0361 109.375 80.0361 109.375C80.0361 109.375 89.6319 106.88 87.6202 100.817C87.6202 100.817 79.8613 100.396 77.5292 88.987C75.1971 77.5775 76.5371 71.9512 76.8883 69.1065C77.2396 66.2618 81.3212 64.1739 83.2473 61.6514L83.2438 61.6531Z" fill="#F2C9E1"/>
<path d="M67.152 157.534C78.4459 158.736 89.8769 156.247 100.321 148.751C103.852 146.217 106.959 143.892 109.713 141.748C109.966 141.551 110.215 141.357 110.462 141.163C119.488 134.083 124.633 129.017 128.676 124.899L129.559 124.87C129.559 124.87 129.701 124.512 129.908 123.929C129.895 123.848 129.881 123.766 129.866 123.684C129.729 122.871 129.569 122.044 129.384 121.214C127.809 114.136 120.751 109.321 119.235 108.855C118.126 108.516 114.173 107.156 112.131 106.451C111.512 106.237 111.07 106.084 110.935 106.036C110.921 106.031 110.911 106.028 110.904 106.026C110.9 106.024 110.897 106.024 110.893 106.023C110.892 106.021 110.89 106.021 110.89 106.021C110.89 106.021 106.577 115.123 94.9678 117.792C83.3604 120.461 81.347 108.953 81.347 108.953C81.3452 108.953 81.3435 108.953 81.3418 108.953H81.3384C79.3387 109.314 76.4154 110.592 73.5778 112.931C71.71 114.468 69.88 116.466 68.3738 118.963C67.1246 121.03 66.0982 123.442 65.4574 126.218C62.8682 137.446 62.666 156.767 62.666 156.767L62.762 156.881L67.152 157.532V157.534Z" fill="#F7A713"/>
<path d="M111.229 129.092L110.461 141.163C110.215 141.357 109.966 141.552 109.713 141.748L111.229 129.092Z" fill="#EE771B"/>
<path d="M33.5291 122.302L37.0726 145.41L35.3008 144.497L33.5291 122.302Z" fill="#CCDEF4"/>
<path d="M61.1786 58.2886C61.1786 58.2886 65.6852 63.9899 67.5666 66.0352C69.4481 68.0805 69.054 71.2576 69.0111 73.3029C68.9683 75.3482 68.2675 80.7444 68.2675 81.9631C68.2675 83.1817 66.1238 91.9715 62.3181 95.2355C58.5123 98.4994 56.9376 99.021 55.1863 99.0653C55.1863 99.0653 54.6175 101.503 55.7107 102.721C56.8039 103.94 60.829 105.114 60.829 105.114C60.829 105.114 57.1689 110.25 46.7266 109.321C36.2844 108.392 30.5098 102.358 30.5098 102.358C30.5098 102.358 38.2686 100.386 39.1425 94.3509C40.0164 88.3155 39.2008 83.4425 39.2008 83.4425C39.2008 83.4425 35.9348 84.1533 34.9427 80.2007C33.9505 76.2481 34.6514 73.7528 36.7505 72.5342C38.8495 71.3155 40.7755 73.6625 40.7755 73.6625C40.7755 73.6625 42.8472 73.0847 44.5093 71.6922C46.1715 70.2997 47.921 65.6006 47.921 65.6006C47.921 65.6006 56.8896 64.0768 61.1769 58.2903L61.1786 58.2886Z" fill="#F2C9E1"/>
<path d="M95.3464 76.1456C95.1939 76.1456 95.0551 76.0434 95.0157 75.89C94.9969 75.8201 94.5119 74.1293 92.3786 74.0338C90.2093 73.935 89.4622 75.1605 89.4313 75.2133C89.3354 75.3752 89.1263 75.4315 88.9635 75.3377C88.8007 75.244 88.7425 75.0377 88.8367 74.8758C88.8744 74.8093 89.8014 73.2379 92.4094 73.3538C95.0586 73.4731 95.672 75.6956 95.6788 75.7195C95.7268 75.9019 95.6172 76.0877 95.4338 76.1354C95.4047 76.1422 95.3756 76.1473 95.3464 76.1473V76.1456Z" fill="#4D4B9A"/>
<path d="M77.4091 75.1881C77.3115 75.1881 77.2155 75.1472 77.147 75.0671C77.0253 74.9239 77.0441 74.7074 77.1881 74.5864C77.2361 74.5455 78.3858 73.591 79.5956 73.3541C80.8499 73.1087 82.5069 74.3359 82.6919 74.4756C82.8427 74.5898 82.8702 74.8029 82.7553 74.9529C82.6405 75.1029 82.4263 75.1318 82.2756 75.0177C81.8403 74.687 80.5329 73.8655 79.7275 74.0223C78.6891 74.2268 77.6387 75.0995 77.6285 75.108C77.5633 75.1625 77.4862 75.1881 77.4074 75.1881H77.4091Z" fill="#4D4B9A"/>
<path d="M84.3369 87.8687C83.6172 87.8687 83.0552 87.671 82.6542 87.2773C81.6998 86.3398 82.1042 84.7104 82.1539 84.528C82.3955 83.6349 84.0799 78.7926 84.1518 78.5864C84.2135 78.4091 84.4089 78.3137 84.5871 78.3751C84.7653 78.4364 84.8612 78.6307 84.7996 78.808C84.7824 78.8574 83.05 83.8326 82.8153 84.7036C82.6748 85.2235 82.584 86.2495 83.1357 86.7915C83.6001 87.2483 84.5014 87.308 85.7386 86.9637C85.9202 86.9125 86.1104 87.0182 86.1601 87.2006C86.2115 87.3813 86.1053 87.5704 85.9219 87.6199C85.329 87.7852 84.7996 87.867 84.3352 87.867L84.3369 87.8687Z" fill="#4D4B9A"/>
<path d="M86.3898 92.764C85.5193 92.764 84.6282 92.539 83.7955 91.9441C83.6413 91.835 83.607 91.622 83.7166 91.4686C83.8263 91.3152 84.0405 91.2811 84.1947 91.3902C87.1146 93.473 91.1037 90.1153 91.1431 90.0812C91.287 89.9585 91.5029 89.9755 91.6263 90.117C91.7497 90.2601 91.7326 90.4749 91.5903 90.5976C91.455 90.7135 89.0166 92.764 86.3898 92.764Z" fill="#4D4B9A"/>
<path d="M79.9691 81.9613C80.7063 81.9613 81.304 81.1722 81.304 80.1989C81.304 79.2256 80.7063 78.4365 79.9691 78.4365C79.2319 78.4365 78.6343 79.2256 78.6343 80.1989C78.6343 81.1722 79.2319 81.9613 79.9691 81.9613Z" fill="#4D4B9A"/>
<path d="M64.525 79.3944C65.2622 79.3944 65.8599 78.6053 65.8599 77.632C65.8599 76.6587 65.2622 75.8696 64.525 75.8696C63.7878 75.8696 63.1902 76.6587 63.1902 77.632C63.1902 78.6053 63.7878 79.3944 64.525 79.3944Z" fill="#4D4B9A"/>
<path d="M53.413 78.2713C54.1502 78.2713 54.7478 77.4823 54.7478 76.509C54.7478 75.5356 54.1502 74.7466 53.413 74.7466C52.6758 74.7466 52.0781 75.5356 52.0781 76.509C52.0781 77.4823 52.6758 78.2713 53.413 78.2713Z" fill="#4D4B9A"/>
<path d="M91.8698 81.9613C92.607 81.9613 93.2046 81.1722 93.2046 80.1989C93.2046 79.2256 92.607 78.4365 91.8698 78.4365C91.1325 78.4365 90.5349 79.2256 90.5349 80.1989C90.5349 81.1722 91.1325 81.9613 91.8698 81.9613Z" fill="#4D4B9A"/>
<path d="M59.4789 85.602C58.6975 85.602 57.8527 85.3191 57.45 85.0617C57.2907 84.9595 57.2444 84.7498 57.3472 84.5913C57.45 84.4328 57.6625 84.3868 57.8202 84.489C58.3582 84.8333 59.6297 85.0975 60.178 84.7737C60.3048 84.6987 60.471 84.5538 60.4436 84.1618C60.3305 82.5886 58.5467 75.9584 58.5296 75.8919C58.4799 75.7095 58.5895 75.5237 58.7712 75.4743C58.9545 75.4249 59.1413 75.534 59.191 75.7146C59.2647 75.9891 61.0091 82.4744 61.1273 84.1124C61.1787 84.8214 60.8291 85.181 60.5276 85.36C60.2328 85.5338 59.8627 85.602 59.4789 85.602Z" fill="#4D4B9A"/>
<path d="M48.3598 71.8303C48.2792 71.8303 48.197 71.8013 48.1319 71.7434C47.9914 71.6173 47.9777 71.4025 48.1045 71.2627C51.6618 67.2965 56.6893 71.1826 56.739 71.2218C56.888 71.3394 56.912 71.5525 56.7955 71.7008C56.679 71.8491 56.4631 71.8729 56.314 71.757C56.1289 71.6121 51.7423 68.2323 48.6151 71.7161C48.5483 71.7911 48.454 71.8303 48.3598 71.8303Z" fill="#4D4B9A"/>
<path d="M68.0772 75.0875C67.9607 75.0875 67.8476 75.0278 67.7825 74.9221C65.6886 71.4604 62.9246 72.674 62.8081 72.7268C62.6368 72.8052 62.4328 72.7302 62.354 72.5598C62.2752 72.3894 62.3506 72.1865 62.5219 72.1081C62.5562 72.0928 65.9644 70.5912 68.3685 74.571C68.4662 74.7329 68.4131 74.9426 68.252 75.038C68.1972 75.0704 68.1355 75.0875 68.0755 75.0875H68.0772Z" fill="#4D4B9A"/>
<path d="M57.6814 90.1886C55.5155 90.1886 52.3729 89.679 50.5291 87.0592C50.4212 86.9058 50.4589 86.6928 50.6131 86.5837C50.769 86.4763 50.9815 86.5138 51.0911 86.6672C53.7848 90.4954 59.8404 89.3261 59.9004 89.3142C60.0855 89.2767 60.2671 89.396 60.3048 89.5801C60.3425 89.7642 60.2226 89.9448 60.0375 89.9823C59.9381 90.0028 58.9871 90.1869 57.6814 90.1869V90.1886Z" fill="#4D4B9A"/>
<path d="M55.1419 98.8026C55.1419 98.8026 48.6664 99.0208 45.4724 94.9302C45.4724 94.9302 46.8724 99.0651 53.3906 100.326C53.3906 100.326 54.5507 100.42 54.8352 100.268C55.1196 100.117 55.1419 98.8026 55.1419 98.8026Z" fill="#E697C1"/>
<path d="M97.6221 97.4836C97.6221 97.4836 90.9787 101.4 87.6802 100.732L88.0554 102.357C88.0554 102.357 97.0686 102.067 97.6221 97.4819V97.4836Z" fill="#E697C1"/>
<path d="M79.8509 46.8704C79.5596 47.288 79.2204 47.6801 78.828 48.0295C75.3786 51.1434 69.3933 50.1804 65.4624 45.8785C62.2838 42.3929 61.4219 37.7875 63.0498 34.5048V34.498C63.4302 33.7293 63.9442 33.0288 64.6022 32.4356C68.0584 29.3148 74.0438 30.2778 77.9746 34.5866C81.4582 38.4029 82.1574 43.5741 79.8527 46.8704H79.8509Z" fill="#F6C45C"/>
<path d="M76.7682 35.1442C79.7446 38.6621 80.9218 43.4635 78.1219 45.8088C75.3202 48.1524 70.4178 46.9508 67.4414 43.4328C64.465 39.9149 63.5089 35.3641 66.3088 33.0205C69.1104 30.6769 73.7935 31.628 76.7682 35.1459V35.1442Z" fill="#F2AD3C"/>
<path d="M79.8509 46.8704C79.5596 47.288 79.2392 47.7022 78.8279 48.0294C74.6521 51.3496 69.3453 49.8668 65.4624 45.8784C62.3712 42.7031 61.0672 37.4637 63.4336 33.7344C62.5905 36.6745 61.9891 42.8582 69.6931 47.5914C73.3858 49.86 76.9328 48.897 79.8544 46.8687L79.8509 46.8704Z" fill="#F2AF42"/>
<path d="M74.4498 47.1806H72.8922V45.72C72.8922 45.3126 72.5598 44.9819 72.1503 44.9819C71.7407 44.9819 71.4083 45.3126 71.4083 45.72V47.1806H69.9021C69.4926 47.1806 69.1602 47.5113 69.1602 47.9187C69.1602 48.326 69.4926 48.6567 69.9021 48.6567H71.4083V50.1174C71.4083 50.5247 71.7407 50.8554 72.1503 50.8554C72.5598 50.8554 72.8922 50.5247 72.8922 50.1174V48.6567H74.4498C74.8594 48.6567 75.1918 48.326 75.1918 47.9187C75.1918 47.5113 74.8594 47.1806 74.4498 47.1806Z" fill="#F6EBF5"/>
<path d="M117.712 9.66113H106.116C104.171 9.66113 102.595 11.2293 102.595 13.1637V37.157C102.595 39.0914 104.171 40.6596 106.116 40.6596H117.712C119.656 40.6596 121.233 39.0914 121.233 37.157V13.1637C121.233 11.2293 119.656 9.66113 117.712 9.66113Z" fill="#5166AE"/>
<path d="M117.211 11.5068H106.616C105.107 11.5068 103.883 12.724 103.883 14.2254V33.1974C103.883 34.6988 105.107 35.9159 106.616 35.9159H117.211C118.721 35.9159 119.944 34.6988 119.944 33.1974V14.2254C119.944 12.724 118.721 11.5068 117.211 11.5068Z" fill="#78A2D6"/>
<path d="M111.915 39.6265C112.621 39.6265 113.195 39.0565 113.195 38.3533C113.195 37.6501 112.621 37.0801 111.915 37.0801C111.208 37.0801 110.635 37.6501 110.635 38.3533C110.635 39.0565 111.208 39.6265 111.915 39.6265Z" fill="#78A2D6"/>
<path d="M150.52 59.0044V59.5651C150.52 61.515 148.932 63.095 146.972 63.095H114.286C112.326 63.095 110.737 61.515 110.737 59.5651V59.0044H127.566V60.4259H133.867V59.0044H150.52Z" fill="#5166AE"/>
<path d="M117.067 33.9683H143.843C146.113 33.9683 147.955 35.8005 147.955 38.0589V59.1205H112.955V38.0589C112.955 35.8005 114.797 33.9683 117.067 33.9683Z" fill="#5166AE"/>
<path d="M143.704 35.918H117.206C116.163 35.918 115.318 36.7589 115.318 37.7962V55.2905C115.318 56.3278 116.163 57.1688 117.206 57.1688H143.704C144.747 57.1688 145.592 56.3278 145.592 55.2905V37.7962C145.592 36.7589 144.747 35.918 143.704 35.918Z" fill="#78A2D6"/>
<path d="M96.772 26.421C96.6863 26.4534 96.5972 26.4857 96.503 26.5215C92.5961 27.9839 81.6038 32.0814 79.8594 32.5535C77.7329 33.1296 77.2086 24.4012 75.4282 23.0002C75.0427 22.6968 90.4645 17.0585 92.591 15.2757C93.7219 14.3281 95.1459 17.425 96.2322 20.5305C96.8988 22.4394 97.4386 24.3518 97.7025 25.3318C97.7025 25.3387 97.7059 25.3455 97.7076 25.3523C97.7076 25.3523 97.7076 25.354 97.7076 25.3557C97.819 25.775 97.1867 26.1943 96.7703 26.421H96.772Z" fill="#5BC1D3"/>
<path d="M87.0015 25.5927C87.8153 25.5927 88.4751 24.9365 88.4751 24.1269C88.4751 23.3174 87.8153 22.6611 87.0015 22.6611C86.1876 22.6611 85.5278 23.3174 85.5278 24.1269C85.5278 24.9365 86.1876 25.5927 87.0015 25.5927Z" fill="#23B6C0"/>
<path d="M83.5405 24.8009L80.5609 25.9827C80.2928 26.0891 80.1621 26.3915 80.269 26.6582C80.3759 26.9249 80.6799 27.0548 80.9481 26.9485L83.9276 25.7667C84.1957 25.6603 84.3264 25.3579 84.2195 25.0913C84.1126 24.8246 83.8086 24.6946 83.5405 24.8009Z" fill="#23B6C0"/>
<path d="M93.0537 21.1642L90.0741 22.346C89.806 22.4524 89.6753 22.7548 89.7822 23.0215C89.8891 23.2881 90.1931 23.4181 90.4612 23.3118L93.4408 22.13C93.7089 22.0236 93.8396 21.7212 93.7327 21.4545C93.6258 21.1879 93.3218 21.0579 93.0537 21.1642Z" fill="#23B6C0"/>
<path d="M77.2155 22.0986C77.2155 22.0986 75.783 22.748 75.43 22.9986C75.077 23.2491 75.9441 24.5854 76.477 26.1995C77.0082 27.8136 77.7073 32.9218 79.7498 32.5809C81.7924 32.24 86.1687 30.3481 86.1687 30.3481C86.1687 30.3481 81.3451 32.0712 80.2262 31.8769C79.1072 31.6826 78.3516 31.3196 77.9043 29.622C77.4571 27.9244 76.9533 25.0848 76.5335 24.3894C76.1137 23.694 75.8344 22.9696 76.1137 22.8315C76.393 22.6935 77.2172 22.0986 77.2172 22.0986H77.2155Z" fill="#23B6C0"/>
<path d="M95.7131 19.1226C95.7543 19.2333 95.9924 19.8947 96.2529 20.7861C95.9702 19.9134 95.7491 19.2333 95.7131 19.1226Z" fill="#85C0EA"/>
<path d="M96.7719 26.421C96.5852 26.5216 96.3693 26.571 96.3573 26.5761C96.383 26.5557 96.4806 26.5454 96.5046 26.5216C97.4077 25.6046 96.7822 22.4105 96.2339 20.5322C96.7788 22.2162 97.5756 24.8734 97.7041 25.3336C97.7041 25.3404 97.7075 25.3472 97.7092 25.3541C97.7092 25.3541 97.7092 25.3558 97.7092 25.3575C97.8206 25.7768 97.1883 26.196 96.7719 26.4227V26.421Z" fill="#23B6C0"/>
<path d="M87.1832 14.1524C87.1301 14.212 87.0735 14.2768 87.0136 14.3433C84.5564 17.1113 77.6354 24.8869 76.4634 25.9794C75.0343 27.314 70.9663 20.6735 68.9804 20.3088C68.5503 20.2304 78.3054 9.40896 79.2307 7.12843C79.7225 5.91488 82.1386 7.75737 84.2925 9.74814C85.6153 10.9719 86.8405 12.2502 87.4591 12.9116C87.4625 12.9167 87.4677 12.9218 87.4711 12.9252C87.4711 12.9252 87.4711 12.9252 87.4728 12.9269C87.7367 13.2098 87.4145 13.8013 87.1832 14.1524Z" fill="#5BC1D3"/>
<path d="M78.5452 17.7025C79.2692 17.7025 79.8561 17.1187 79.8561 16.3986C79.8561 15.6785 79.2692 15.0947 78.5452 15.0947C77.8213 15.0947 77.2344 15.6785 77.2344 16.3986C77.2344 17.1187 77.8213 17.7025 78.5452 17.7025Z" fill="#23B6C0"/>
<path d="M76.1133 18.3668L74.2668 20.5302C74.1009 20.7247 74.1248 21.0162 74.3203 21.1813C74.5158 21.3464 74.8089 21.3225 74.9748 21.1281L76.8213 18.9647C76.9873 18.7702 76.9633 18.4787 76.7678 18.3136C76.5723 18.1485 76.2793 18.1723 76.1133 18.3668Z" fill="#23B6C0"/>
<path d="M82.0642 11.568L80.2178 13.7314C80.0518 13.9258 80.0757 14.2173 80.2712 14.3824C80.4667 14.5475 80.7598 14.5237 80.9258 14.3293L82.7722 12.1659C82.9382 11.9714 82.9143 11.6799 82.7188 11.5148C82.5232 11.3497 82.2302 11.3735 82.0642 11.568Z" fill="#23B6C0"/>
<path d="M70.0067 18.8616C70.0067 18.8616 69.1534 19.966 68.982 20.3086C68.8107 20.6512 70.0513 21.3415 71.1445 22.3897C72.2377 23.438 74.928 27.1604 76.3896 26.0457C77.8513 24.931 80.497 21.6313 80.497 21.6313C80.497 21.6313 77.4297 24.9839 76.4685 25.2958C75.5072 25.6077 74.7618 25.635 73.6994 24.4862C72.637 23.3374 71.052 21.3159 70.43 20.9427C69.8079 20.5694 69.2853 20.1177 69.4481 19.8927C69.6109 19.6678 70.0067 18.8599 70.0067 18.8599V18.8616Z" fill="#23B6C0"/>
<path d="M83.2935 8.85693C83.3723 8.92682 83.8366 9.34781 84.4141 9.94095C83.8264 9.37167 83.3689 8.93022 83.2935 8.85693Z" fill="#85C0EA"/>
<path d="M87.1832 14.1525C87.0787 14.3093 86.9296 14.4372 86.921 14.4474C86.933 14.4201 87.005 14.3724 87.0136 14.3434C87.3391 13.2492 85.5108 10.9976 84.2925 9.75C85.4268 10.8477 87.1644 12.6049 87.4591 12.9134C87.4625 12.9185 87.4677 12.9236 87.4711 12.9271C87.4711 12.9271 87.4711 12.9271 87.4728 12.9288C87.7367 13.2117 87.4145 13.8031 87.1832 14.1542V14.1525Z" fill="#23B6C0"/>
</g>
<defs>
<clipPath id="clip0_53_5566">
<rect width="136.479" height="151.082" fill="white" transform="translate(14.041 6.73975)"/>
</clipPath>
</defs>
</svg>
