<svg width="99" height="107" viewBox="0 0 99 107" fill="none" xmlns="http://www.w3.org/2000/svg">
<path d="M96.443 61.0973C96.443 61.0973 98.532 59.1424 98.9639 54.3109C99.3959 49.4793 95.6755 50.6817 97.4868 43.9405C99.2982 37.1994 92.5273 35.2717 91.4821 32.4234C90.437 29.5752 93.0736 27.3346 91.1646 22.909C89.2556 18.4834 85.6175 18.4007 83.3499 12.8968C81.0822 7.39299 75.0865 -0.668213 66.8591 0.0441721C58.6317 0.756557 52.024 3.53499 49.2717 14.1781C46.5194 24.8212 49.678 23.0512 45.8831 28.6404C42.0882 34.2296 43.5653 36.7443 44.9446 38.8039C46.324 40.8635 43.4856 42.2081 42.713 45.5127C41.9403 48.8173 41.8002 53.6761 45.8831 56.3317C49.9659 58.9873 96.4417 61.0973 96.4417 61.0973H96.443Z" fill="#EB672B"/>
<path d="M79.4151 46.0028L82.4503 46.9711C82.4503 46.9711 86.5858 48.4011 88.2712 49.4251C89.9565 50.449 93.1292 52.3845 94.6281 54.4428C96.127 56.5011 97.4691 58.2982 97.8599 63.9417C98.2507 69.5852 97.5475 78.2049 97.5475 78.2049C97.5475 78.2049 96.7904 85.8058 95.7529 89.7013C94.7155 93.5968 94.5908 94.7139 93.6472 96.4864C92.7037 98.259 91.9735 99.186 91.9735 99.186C91.9735 99.186 91.5441 99.8971 88.9011 100.695L88.9833 102.681C88.9833 102.681 89.2302 102.973 87.9523 103.337C86.6745 103.702 83.3077 105.016 80.423 105.471C77.5383 105.926 73.0248 107 68.069 106.934C63.1133 106.868 62.1967 107.323 54.8846 106.031C47.5725 104.738 43.5026 102.465 43.5026 102.465L43.7365 95.0138C43.7365 95.0138 40.3582 96.2809 36.8834 96.0171C33.0486 95.7262 29.75 90.8895 29.75 90.8895C29.75 90.8895 23.5511 82.2245 21.3657 76.4802L33.4253 69.3835H36.4206C36.4206 69.3835 37.9041 64.5028 41.2117 59.0157C44.5194 53.5287 44.8344 51.517 50.6938 48.0985C50.6938 48.0985 54.0041 46.6169 55.7987 46.2432C55.7987 46.2432 59.5344 50.9869 66.6742 50.7361C73.8141 50.4852 78.091 47.2452 79.4151 46.0015V46.0028Z" fill="#F4F8FD"/>
<path d="M39.6792 85.6481C39.6792 85.6481 40.1291 86.707 41.2373 86.5674C42.3454 86.4278 41.3247 89.1583 46.3575 91.0292C51.3904 92.9 52.7363 93.1754 52.7363 93.1754L52.8353 91.9872L42.7041 85.3081L39.6805 85.6494L39.6792 85.6481Z" fill="#CCDEF4"/>
<path d="M23.5999 81.1128C23.7529 81.0378 30.0108 80.752 33.4034 79.5639C36.7959 78.3757 38.7486 77.8404 38.7203 78.655C38.6522 80.6344 39.4646 80.0435 39.4646 80.0435L44.1697 77.2095L40.4494 74.2824L37.1893 73.1382C37.1893 73.1382 31.4995 76.8359 26.9487 77.9581C22.3979 79.0803 22.7964 79.6466 22.7964 79.6466L23.6012 81.1141L23.5999 81.1128Z" fill="#CCDEF4"/>
<path d="M59.0906 8.12103C59.0906 8.12103 60.776 11.03 66.6084 13.3547C72.4409 15.6793 72.3367 23.4056 74.0516 24.0754C75.7665 24.7451 74.3525 22.317 76.723 22.2769C79.0935 22.2369 80.2299 25.1756 80.2299 26.6327C80.2299 28.0898 78.8004 31.5017 75.3577 31.5793C71.9151 31.6569 75.1405 31.5677 75.1405 31.5677C75.1405 31.5677 73.4269 34.3487 74.4219 39.5823C75.4169 44.816 79.4149 45.9654 79.4149 45.9654C79.4149 45.9654 74.391 50.5021 66.3256 50.6741C58.2602 50.846 56.0182 46.1787 56.0182 46.1787C56.0182 46.1787 59.6267 45.8671 59.5406 41.5269C59.5406 41.5269 50.7 40.6593 50.6948 27.1137C50.6897 13.568 53.9614 12.6617 54.7944 11.8472C55.6274 11.0326 57.6547 9.26265 57.8385 8.81531C58.0224 8.36797 58.6073 7.66464 59.0919 8.12361L59.0906 8.12103Z" fill="#F2C9E1"/>
<path d="M27.6537 37.7685L1.91346 43.5836C0.591059 43.8823 -0.240153 45.2027 0.056892 46.5326L7.76117 81.0273C8.05821 82.3573 9.37103 83.1933 10.6934 82.8945L36.4337 77.0795C37.7561 76.7807 38.5873 75.4604 38.2903 74.1304L30.586 39.6357C30.2889 38.3057 28.9761 37.4698 27.6537 37.7685Z" fill="white"/>
<path d="M11.2793 45.0024L6.53311 46.0746C5.6686 46.2699 5.1252 47.1331 5.31939 48.0025L6.38551 52.7759C6.5797 53.6454 7.43795 54.1919 8.30246 53.9966L13.0486 52.9243C13.9132 52.729 14.4566 51.8659 14.2624 50.9964L13.1962 46.223C13.0021 45.3536 12.1438 44.8071 11.2793 45.0024Z" fill="#F3F1F9"/>
<path d="M13.7646 56.1303L9.01846 57.2025C8.15395 57.3978 7.61055 58.261 7.80474 59.1305L8.87086 63.9038C9.06505 64.7733 9.9233 65.3198 10.7878 65.1245L15.534 64.0523C16.3985 63.857 16.9419 62.9938 16.7477 62.1243L15.6816 57.351C15.4874 56.4815 14.6292 55.935 13.7646 56.1303Z" fill="#F3F1F9"/>
<path d="M12.5006 71.323L13.1999 72.5086C13.2744 72.6353 13.4223 72.6987 13.565 72.6664L14.9019 72.3638C15.2207 72.2914 15.4457 72.6728 15.2297 72.9198L14.3247 73.9554C14.2283 74.0653 14.2129 74.2269 14.2874 74.3536L14.9868 75.5392C15.1539 75.8223 14.8634 76.1546 14.5625 76.024L13.304 75.4784C13.169 75.4202 13.0135 75.4551 12.9171 75.5663L12.012 76.6019C11.7961 76.8489 11.3911 76.673 11.422 76.3459L11.5493 74.9729C11.5634 74.8268 11.4811 74.6872 11.3461 74.629L10.0876 74.0834C9.7868 73.9528 9.82793 73.5119 10.1467 73.4395L11.4837 73.137C11.6264 73.1047 11.7318 72.9831 11.7459 72.837L11.8732 71.464C11.9041 71.1369 12.3334 71.0386 12.5006 71.3218V71.323Z" fill="#F7A713"/>
<path d="M18.8189 69.8958L19.5182 71.0814C19.5928 71.2081 19.7406 71.2714 19.8833 71.2391L21.2203 70.9366C21.5391 70.8642 21.7641 71.2456 21.5481 71.4925L20.6431 72.5281C20.5467 72.638 20.5312 72.7996 20.6058 72.9263L21.3051 74.1119C21.4722 74.3951 21.1817 74.7273 20.8809 74.5968L19.6224 74.0512C19.4874 73.993 19.3318 74.0279 19.2354 74.1391L18.3304 75.1747C18.1144 75.4216 17.7095 75.2458 17.7404 74.9187L17.8676 73.5456C17.8818 73.3995 17.7995 73.2599 17.6645 73.2017L16.406 72.6561C16.1052 72.5256 16.1463 72.0847 16.4651 72.0123L17.8021 71.7097C17.9447 71.6774 18.0502 71.5559 18.0643 71.4098L18.1916 70.0367C18.2224 69.7096 18.6518 69.6114 18.8189 69.8945V69.8958Z" fill="#F7A713"/>
<path d="M25.356 68.4178L26.0553 69.6034C26.1299 69.7301 26.2777 69.7934 26.4204 69.7611L27.7574 69.4585C28.0762 69.3861 28.3012 69.7676 28.0852 70.0145L27.1802 71.0501C27.0838 71.16 27.0683 71.3216 27.1429 71.4483L27.8422 72.6339C28.0094 72.917 27.7188 73.2493 27.418 73.1187L26.1595 72.5731C26.0245 72.515 25.8689 72.5499 25.7725 72.6611L24.8675 73.6967C24.6515 73.9436 24.2466 73.7678 24.2775 73.4407L24.4047 72.0676C24.4189 71.9215 24.3366 71.7819 24.2016 71.7237L22.9431 71.1781C22.6423 71.0475 22.6834 70.6066 23.0022 70.5342L24.3392 70.2317C24.4819 70.1994 24.5873 70.0778 24.6014 69.9318L24.7287 68.5587C24.7595 68.2316 25.1889 68.1333 25.356 68.4165V68.4178Z" fill="#F7A713"/>
<path d="M31.9249 66.9334L32.6242 68.119C32.6988 68.2457 32.8466 68.309 32.9893 68.2767L34.3262 67.9742C34.645 67.9018 34.87 68.2832 34.654 68.5301L33.749 69.5657C33.6526 69.6756 33.6372 69.8372 33.7118 69.9639L34.4111 71.1495C34.5782 71.4327 34.2877 71.7649 33.9869 71.6344L32.7283 71.0888C32.5933 71.0306 32.4378 71.0655 32.3414 71.1767L31.4364 72.2123C31.2204 72.4592 30.8155 72.2834 30.8463 71.9563L30.9736 70.5832C30.9877 70.4371 30.9054 70.2975 30.7705 70.2393L29.5119 69.6937C29.2111 69.5631 29.2522 69.1223 29.5711 69.0499L30.908 68.7473C31.0507 68.715 31.1561 68.5935 31.1703 68.4474L31.2975 67.0743C31.3284 66.7472 31.7577 66.649 31.9249 66.9321V66.9334Z" fill="#F7A713"/>
<path d="M26.5835 43.5303L16.6547 45.7733C16.0277 45.915 15.6337 46.5409 15.7745 47.1714C15.9153 47.8019 16.5377 48.1982 17.1646 48.0566L27.0935 45.8135C27.7204 45.6719 28.1144 45.046 27.9736 44.4155C27.8328 43.785 27.2104 43.3887 26.5835 43.5303Z" fill="#5858A3"/>
<path d="M25.0893 47.2317L17.3705 48.9755C16.7436 49.1171 16.3495 49.7431 16.4903 50.3736C16.6311 51.0041 17.2535 51.4004 17.8804 51.2587L25.5992 49.515C26.2262 49.3733 26.6202 48.7474 26.4794 48.1169C26.3386 47.4864 25.7162 47.0901 25.0893 47.2317Z" fill="#5858A3"/>
<path d="M28.5806 52.4688L18.6517 54.7118C18.0248 54.8535 17.6308 55.4794 17.7716 56.1099C17.9124 56.7404 18.5348 57.1367 19.1617 56.9951L29.0905 54.752C29.7174 54.6104 30.1115 53.9844 29.9707 53.3539C29.8299 52.7234 29.2075 52.3271 28.5806 52.4688Z" fill="#5858A3"/>
<path d="M27.0864 56.1712L19.3675 57.9149C18.7406 58.0566 18.3466 58.6825 18.4874 59.313C18.6282 59.9435 19.2506 60.3398 19.8775 60.1982L27.5963 58.4544C28.2232 58.3128 28.6173 57.6869 28.4765 57.0564C28.3356 56.4259 27.7133 56.0295 27.0864 56.1712Z" fill="#5858A3"/>
<path d="M9.51947 52.3202C9.44748 52.3202 9.37549 52.2995 9.31378 52.2594L7.66059 51.207C7.48061 51.0919 7.42662 50.8527 7.54103 50.6717C7.65545 50.4907 7.89327 50.4364 8.07324 50.5515L9.39605 51.3945L11.7807 47.5067C11.8926 47.3244 12.1304 47.2675 12.3116 47.38C12.4929 47.4925 12.5495 47.7317 12.4376 47.914L9.84856 52.1353C9.79457 52.2232 9.70715 52.2866 9.60688 52.3098C9.5786 52.3163 9.54903 52.3202 9.52075 52.3202H9.51947Z" fill="#EB672B"/>
<path d="M11.9785 63.3275C11.9065 63.3275 11.8345 63.3068 11.7728 63.2667L10.1196 62.2143C9.9396 62.0992 9.88561 61.8601 10 61.6791C10.1144 61.498 10.3523 61.4437 10.5322 61.5588L11.855 62.4018L14.2397 58.514C14.3515 58.3317 14.5894 58.2749 14.7706 58.3873C14.9519 58.4998 15.0084 58.739 14.8966 58.9213L12.3075 63.1426C12.2536 63.2305 12.1661 63.2939 12.0659 63.3171C12.0376 63.3236 12.008 63.3275 11.9797 63.3275H11.9785Z" fill="#EB672B"/>
<path d="M57.0893 83.9531C57.0893 83.9531 55.4606 83.7566 52.8792 80.5166C50.2979 77.2766 49.8068 75.7936 46.6573 74.4762C43.5077 73.1587 37.5955 71.0694 37.0672 71.2013C36.5388 71.3331 35.8742 72.1929 37.1662 73.5233C38.4581 74.8537 40.9431 75.3502 41.5923 76.2242C41.5923 76.2242 40.0458 76.4116 39.5778 77.4731C39.1099 78.5346 39.6344 79.0647 39.6344 79.0647C39.6344 79.0647 38.4813 78.9237 38.2859 80.0033C38.0905 81.0829 38.2627 82.0487 38.2627 82.0487C38.2627 82.0487 37.7447 82.3564 37.9696 83.5019C38.1946 84.6474 39.4608 86.0605 40.8081 85.7942C42.1553 85.5278 42.1 85.3326 42.3661 86.1316C42.6323 86.9306 44.9976 89.881 47.7127 90.7136C50.4277 91.5463 53.7701 92.2612 53.7701 92.2612L57.0893 83.9531Z" fill="#F2C9E1"/>
<path d="M81.4335 67.894C81.4335 67.894 80.1634 84.5375 78.0628 84.9331C75.9622 85.3287 55.809 82.0616 55.809 82.0616C55.809 82.0616 54.1943 85.7153 53.6236 88.0309C53.0528 90.3465 52.3085 93.5593 52.7237 94.154C53.1389 94.7488 65.1419 101.227 79.4139 101.893C93.6858 102.559 94.5716 82.3758 94.6706 81.9711C94.7696 81.5664 81.4335 67.894 81.4335 67.894Z" fill="#F4F8FD"/>
<path d="M65.8526 83.6129L74.4515 84.6911C74.4515 84.6911 77.5728 85.1553 78.3312 84.7907C79.0897 84.4261 81.4101 67.5693 81.4101 67.5693C81.4101 67.5693 76.4209 74.3622 76.6176 79.186C76.8143 84.0098 71.9936 82.7634 67.7745 82.4622C63.5554 82.161 60.9277 82.8656 60.9277 82.8656L65.8513 83.6129H65.8526Z" fill="#CCDEF4"/>
<path d="M88.9011 100.695C88.9011 100.695 89.1223 102.61 89.0001 102.898C88.878 103.186 86.0396 104.003 86.0396 104.003C86.0396 104.003 86.4252 103.879 86.9009 102.625C87.3765 101.371 87.4009 101.107 87.4009 101.107L88.8999 100.695H88.9011Z" fill="#CCDEF4"/>
<path d="M79.4148 45.9638L77.9814 45.2734C78.4224 45.5411 78.9006 45.7686 79.4148 45.9638Z" stroke="#F6EBF5" stroke-miterlimit="10"/>
<path d="M67.6535 40.2648C66.6251 40.8776 63.6889 42.2946 59.5393 41.5241C59.5393 41.5241 59.5842 42.3334 59.4531 42.614C59.4531 42.614 65.3576 43.0846 67.7551 40.3876C67.8155 40.3191 67.7319 40.2182 67.6535 40.2648Z" fill="#ECA3C8"/>
<path d="M56.9643 19.0395C56.8974 19.0395 56.8306 19.0189 56.7727 18.9749C54.7287 17.4428 52.7233 18.728 52.6385 18.7835C52.4906 18.8805 52.2914 18.8391 52.1937 18.6905C52.096 18.5418 52.1371 18.3414 52.285 18.2431C52.3094 18.2276 54.7455 16.6477 57.1571 18.4564C57.2998 18.5638 57.3281 18.7654 57.2227 18.909C57.1597 18.9943 57.0633 19.0395 56.9643 19.0395Z" fill="#4D4B9A"/>
<path d="M68.7684 20.1821C68.6938 20.1821 68.6192 20.1562 68.5588 20.1045C65.9119 17.8213 63.4077 19.6042 63.3023 19.6805C63.1596 19.7852 62.9578 19.7542 62.8536 19.6094C62.7495 19.4658 62.7804 19.2642 62.9231 19.1581C62.9526 19.1362 65.9363 16.9899 68.9779 19.6132C69.1129 19.7296 69.1283 19.9339 69.0126 20.0696C68.9496 20.1446 68.8596 20.1821 68.7684 20.1821Z" fill="#4D4B9A"/>
<path d="M58.7795 30.391C57.5042 30.391 56.5889 29.8894 56.2071 29.3179C55.9397 28.9184 55.9127 28.4685 56.1338 28.0845C56.7895 26.9429 58.4979 22.4009 58.5159 22.3557C58.5661 22.2225 58.7139 22.1553 58.8476 22.2057C58.98 22.2561 59.0468 22.4048 58.9967 22.5393C58.926 22.7281 57.2561 27.1679 56.5799 28.3444C56.4256 28.6133 56.5246 28.8654 56.6352 29.0309C56.9849 29.5532 58.0094 30.0264 59.4299 29.8299C59.5688 29.8105 59.6999 29.9088 59.7192 30.051C59.7385 30.1919 59.6408 30.3225 59.4993 30.3419C59.2487 30.3768 59.0083 30.3923 58.7807 30.3923L58.7795 30.391Z" fill="#4D4B9A"/>
<path d="M65.4064 25.2571C66.0205 25.2571 66.5184 24.618 66.5184 23.8297C66.5184 23.0414 66.0205 22.4023 65.4064 22.4023C64.7923 22.4023 64.2944 23.0414 64.2944 23.8297C64.2944 24.618 64.7923 25.2571 65.4064 25.2571Z" fill="#4D4B9A"/>
<path d="M54.8834 24.4993C55.467 24.4993 55.9401 23.8816 55.9401 23.1198C55.9401 22.3579 55.467 21.7402 54.8834 21.7402C54.2998 21.7402 53.8267 22.3579 53.8267 23.1198C53.8267 23.8816 54.2998 24.4993 54.8834 24.4993Z" fill="#4D4B9A"/>
<path d="M59.5534 34.844C57.9837 34.844 57.0196 34.0579 57.0029 34.0437C56.8666 33.9286 56.8486 33.7256 56.963 33.5886C57.0761 33.4515 57.2793 33.4334 57.4155 33.5472C57.5158 33.6299 59.8439 35.4878 63.2686 32.6098C63.4048 32.4961 63.6066 32.5142 63.7211 32.6512C63.8342 32.7883 63.8162 32.9925 63.6799 33.1063C62.082 34.4483 60.6654 34.8427 59.5534 34.8427V34.844Z" fill="#4D4B9A"/>
<path d="M55.8013 46.2405C57.592 48.4553 61.3406 51.4832 68.0909 50.5717C74.516 49.7029 77.8276 47.505 79.4152 45.9639" stroke="#F6EBF5" stroke-miterlimit="10"/>
<path d="M81.5066 67.3457C81.5066 67.3457 79.748 80.6702 79.1798 83.1151C78.6116 85.56 77.9984 84.7778 77.9984 84.7778C75.1535 85.2833 55.8487 82.0485 55.8487 82.0485C52.3739 89.6623 52.6863 94.0582 52.6863 94.0582C74.3089 104.472 85.8105 102.361 91.1686 99.7857C96.5267 97.2102 99.891 67.4025 96.9368 58.691C93.9827 49.9795 82.8551 47.1209 79.8354 46.1111C76.8157 45.1014 74.9787 43.1401 74.2793 38.8024C73.58 34.4647 74.9478 31.5751 74.9478 31.5751C74.9478 31.5751 72.5709 31.6075 75.3579 31.5751C78.1449 31.5428 80.0989 28.9234 80.0552 26.2626C80.0115 23.6018 78.2542 22.1525 76.7231 22.2727C74.4207 22.4525 75.5366 24.6969 74.0518 24.0712C73.3075 23.757 73.3576 23.1157 71.6543 18.7987C69.3365 12.9225 65.8283 13.5961 62.5026 11.2741C60.1179 9.60884 59.9894 9.38 59.4803 8.65081C59.3672 8.48919 58.9854 7.96686 58.6666 8.01987C58.3478 8.07288 57.948 8.4517 57.7358 8.97274C57.4646 9.63858 53.2931 12.3071 52.0898 15.2782C51.2426 17.3688 48.6549 30.4956 53.2172 37.2626C57.7796 44.0296 65.5146 41.4903 67.6203 40.2841" stroke="#F6EBF5" stroke-miterlimit="10"/>
<path d="M59.5394 41.6533C59.5394 41.6533 59.6886 44.4007 57.75 45.51C55.8101 46.6193 51.8147 46.5599 47.2922 50.3972C43.1823 53.8828 39.3232 62.8064 36.9038 67.8939" stroke="#F6EBF5" stroke-miterlimit="10"/>
<path d="M48.9736 60.9707C46.6301 64.8274 45.3022 69.2698 44.563 73.6411" stroke="#F6EBF5" stroke-miterlimit="10"/>
<path d="M88.901 100.696C88.901 100.696 89.1246 102.76 88.901 102.958C88.6773 103.155 80.0321 106.309 71.3509 106.795C62.6697 107.281 51.7735 106.664 43.5024 102.468C43.5024 102.468 43.613 99.2043 43.7364 95.0166" stroke="#F6EBF5" stroke-miterlimit="10"/>
<path d="M23.0586 80.0757C25.7081 85.0766 30.7705 93.3938 34.2273 95.1961C36.9847 96.6351 40.8336 95.9356 43.7364 95.0164" stroke="#F6EBF5" stroke-miterlimit="10"/>
<path d="M46.1443 77.0517C46.1443 77.0517 43.7905 75.7097 41.5781 76.0471" stroke="#5858A3" stroke-width="4" stroke-linecap="round" stroke-linejoin="round"/>
<path d="M43.9933 79.7174C43.9933 79.7174 41.7938 78.365 39.5942 78.7102" stroke="#5858A3" stroke-width="4" stroke-linecap="round" stroke-linejoin="round"/>
<path d="M43.3698 82.9526C43.3698 82.9526 40.7743 81.2602 38.355 82.3203" stroke="#5858A3" stroke-width="4" stroke-linecap="round" stroke-linejoin="round"/>
<path d="M37.1751 22.1592H36.567V21.5839C36.567 21.4236 36.4372 21.293 36.2778 21.293C36.1184 21.293 35.9885 21.4236 35.9885 21.5839V22.1592H35.4011C35.2404 22.1592 35.1118 22.2898 35.1118 22.4501C35.1118 22.6104 35.2417 22.741 35.4011 22.741H35.9885V23.3163C35.9885 23.4767 36.1184 23.6073 36.2778 23.6073C36.4372 23.6073 36.567 23.4767 36.567 23.3163V22.741H37.1751C37.3358 22.741 37.4643 22.6104 37.4643 22.4501C37.4643 22.2898 37.3345 22.1592 37.1751 22.1592Z" fill="#F6EBF5"/>
<path d="M25.7337 24.5782H25.2941V24.1619C25.2941 24.0456 25.2002 23.9512 25.0845 23.9512C24.9688 23.9512 24.875 24.0456 24.875 24.1619V24.5782H24.4508C24.3351 24.5782 24.2412 24.6726 24.2412 24.789C24.2412 24.9053 24.3351 24.9997 24.4508 24.9997H24.875V25.416C24.875 25.5324 24.9688 25.6268 25.0845 25.6268C25.2002 25.6268 25.2941 25.5324 25.2941 25.416V24.9997H25.7337C25.8494 24.9997 25.9433 24.9053 25.9433 24.789C25.9433 24.6726 25.8494 24.5782 25.7337 24.5782Z" fill="#F6EBF5"/>
<path d="M30.602 34.8798C30.4773 35.0608 30.3333 35.2288 30.1649 35.3801C28.6904 36.726 26.1348 36.3097 24.4546 34.4505C23.0971 32.9443 22.7281 30.9558 23.4236 29.5375V29.5349C23.5856 29.2027 23.8054 28.9001 24.0869 28.6441C25.564 27.2956 28.1209 27.712 29.7998 29.5737C31.2885 31.2222 31.5867 33.4563 30.602 34.8798Z" fill="#F6C45C"/>
<path d="M29.2843 29.8158C30.5557 31.3349 31.0584 33.41 29.8628 34.4224C28.666 35.4347 26.5719 34.915 25.3005 33.3958C24.0291 31.8767 23.6203 29.9102 24.8171 28.8978C26.014 27.8855 28.0142 28.2966 29.2856 29.8158H29.2843Z" fill="#F2AD3C"/>
<path d="M30.6023 34.8801C30.4776 35.0611 30.3413 35.2395 30.1652 35.3804C28.3809 36.8143 26.1145 36.1743 24.4549 34.4508C23.1346 33.0791 22.578 30.8165 23.5884 29.2056C23.2285 30.4752 22.9714 33.1463 26.2623 35.1917C27.8397 36.1717 29.3553 35.7554 30.6036 34.8801H30.6023Z" fill="#F2AF42"/>
<path d="M38.5365 33.2239C38.7165 33.3493 38.8836 33.4941 39.034 33.6635C40.3723 35.1464 39.9583 37.7167 38.1097 39.4065C36.6121 40.7718 34.6349 41.1429 33.2247 40.4434H33.2221C32.8917 40.2805 32.5909 40.0594 32.3364 39.7763C30.9956 38.2908 31.4095 35.7192 33.2607 34.0307C34.8997 32.5335 37.1211 32.2336 38.5365 33.2239Z" fill="#F6C45C"/>
<path d="M33.5012 34.549C35.0117 33.2703 37.075 32.7648 38.0816 33.9672C39.0882 35.1709 38.5714 37.277 37.0609 38.5557C35.5504 39.8344 33.5951 40.2455 32.5885 39.0418C31.5819 37.8381 31.9907 35.8264 33.5012 34.5477V34.549Z" fill="#F2AD3C"/>
<path d="M38.5367 33.224C38.7167 33.3494 38.8941 33.4864 39.0342 33.6635C40.4599 35.4581 39.8235 37.7374 38.1099 39.4066C36.746 40.7344 34.4963 41.2942 32.8945 40.278C34.1569 40.64 36.8128 40.8986 38.8465 37.5888C39.821 36.0024 39.407 34.4781 38.5367 33.2227V33.224Z" fill="#F2AF42"/>
<path d="M34.0243 18.239C34.2043 18.3645 34.3714 18.5093 34.5218 18.6786C35.86 20.1616 35.4461 22.7319 33.5975 24.4217C32.0999 25.787 30.1227 26.158 28.7125 25.4586H28.7099C28.3795 25.2957 28.0787 25.0746 27.8242 24.7914C26.4834 23.3059 26.8973 20.7343 28.7485 19.0458C30.3875 17.5486 32.6089 17.2487 34.0243 18.239Z" fill="#F6C45C"/>
<path d="M28.9885 19.5632C30.499 18.2845 32.5623 17.779 33.5689 18.9814C34.5755 20.185 34.0587 22.2912 32.5482 23.5698C31.0377 24.8485 29.0824 25.2597 28.0758 24.056C27.0692 22.8523 27.478 20.8405 28.9885 19.5619V19.5632Z" fill="#F2AD3C"/>
<path d="M34.024 18.2391C34.204 18.3645 34.3814 18.5015 34.5215 18.6787C35.9472 20.4732 35.3108 22.7526 33.5972 24.4217C32.2333 25.7495 29.9836 26.3093 28.3818 25.2931C29.6442 25.6551 32.3001 25.9137 34.3338 22.6039C35.3083 21.0175 34.8943 19.4932 34.024 18.2378V18.2391Z" fill="#F2AF42"/>
<path d="M28.2945 35.0142H27.6285V34.3833C27.6285 34.2075 27.4871 34.064 27.311 34.064C27.1349 34.064 26.9935 34.2062 26.9935 34.3833V35.0142H26.3507C26.1759 35.0142 26.0332 35.1565 26.0332 35.3336C26.0332 35.5107 26.1746 35.6529 26.3507 35.6529H26.9935V36.2839C26.9935 36.4597 27.1349 36.6032 27.311 36.6032C27.4871 36.6032 27.6285 36.461 27.6285 36.2839V35.6529H28.2945C28.4693 35.6529 28.612 35.5107 28.612 35.3336C28.612 35.1565 28.4706 35.0142 28.2945 35.0142Z" fill="#F6EBF5"/>
</svg>
