<svg width="108" height="72" viewBox="0 0 108 72" fill="none" xmlns="http://www.w3.org/2000/svg">
<path d="M104.73 54.9912C104.501 55.0788 104.255 55.1717 104.001 55.2673C93.3838 59.2832 63.5146 70.532 58.7763 71.8273C53 73.4092 51.5711 49.4491 46.7325 45.5977C45.6839 44.7616 87.5917 29.2846 93.3706 24.3928C96.445 21.7916 100.314 30.2906 103.262 38.8187V38.8214C105.074 44.0609 106.54 49.3111 107.258 52.0025C107.263 52.0211 107.269 52.0423 107.274 52.0582C107.274 52.0609 107.274 52.0636 107.277 52.0662C107.578 53.2182 105.861 54.3701 104.73 54.9912Z" fill="#5BC1D3"/>
<path d="M78.1786 52.7138C80.39 52.7138 82.1827 50.9122 82.1827 48.6899C82.1827 46.4676 80.39 44.666 78.1786 44.666C75.9672 44.666 74.1746 46.4676 74.1746 48.6899C74.1746 50.9122 75.9672 52.7138 78.1786 52.7138Z" fill="#23B6C0"/>
<path d="M68.7755 50.5431L60.6746 53.7894C59.947 54.081 59.5924 54.9101 59.8825 55.6413L59.8835 55.6438C60.1736 56.375 60.9987 56.7314 61.7263 56.4398L69.8272 53.1935C70.5548 52.902 70.9094 52.0728 70.6193 51.3416L70.6183 51.3392C70.3282 50.608 69.5031 50.2516 68.7755 50.5431Z" fill="#23B6C0"/>
<path d="M94.6295 40.5578L86.5286 43.8041C85.801 44.0957 85.4464 44.9248 85.7365 45.656L85.7375 45.6585C86.0276 46.3897 86.8527 46.7461 87.5803 46.4545L95.6812 43.2082C96.4088 42.9166 96.7634 42.0875 96.4733 41.3563L96.4723 41.3538C96.1822 40.6226 95.3571 40.2662 94.6295 40.5578Z" fill="#23B6C0"/>
<path d="M51.5843 43.124C51.5843 43.124 47.6912 44.9077 46.7325 45.5978C45.7737 46.2879 48.1297 49.9535 49.5744 54.3834C51.0191 58.8134 52.9208 72.8386 58.4699 71.9017C64.0191 70.9647 75.9097 65.7729 75.9097 65.7729C75.9097 65.7729 62.8015 70.5055 59.7615 69.972C56.7215 69.4385 54.6666 68.4431 53.4517 63.7822C52.2341 59.1213 50.8659 51.3284 49.7249 49.4173C48.584 47.5062 47.8233 45.5208 48.584 45.1386C49.3446 44.7564 51.5817 43.124 51.5817 43.124H51.5843Z" fill="#23B6C0"/>
<path d="M101.849 34.9541C101.96 35.2567 102.607 37.0749 103.315 39.5221C102.546 37.1253 101.947 35.2593 101.849 34.9541Z" fill="#85C0EA"/>
<path d="M104.73 54.9911C104.223 55.2698 103.637 55.4052 103.603 55.4185C103.674 55.3601 103.941 55.3335 104.001 55.2672C106.458 52.7509 104.757 43.9812 103.267 38.8213C104.749 43.4477 106.912 50.739 107.263 52.0024C107.268 52.021 107.274 52.0422 107.279 52.0582C107.279 52.0608 107.279 52.0635 107.282 52.0661C107.583 53.2181 105.866 54.37 104.736 54.9911H104.73Z" fill="#23B6C0"/>
<path d="M78.6725 21.3084C78.5273 21.473 78.3741 21.6482 78.213 21.8313C71.536 29.4305 52.7307 50.7761 49.5455 53.7781C45.6629 57.441 34.6069 39.2115 29.2109 38.2135C28.0409 37.9958 54.5505 8.2892 57.0623 2.02778C58.3987 -1.30334 64.9621 3.75571 70.815 9.22085C74.4123 12.5785 77.7402 16.0901 79.4173 17.9056C79.4279 17.9189 79.4411 17.9322 79.4517 17.9428C79.4517 17.9428 79.4543 17.9481 79.457 17.9481C80.1727 18.7258 79.3011 20.3502 78.6699 21.3111L78.6725 21.3084Z" fill="#5BC1D3"/>
<path d="M55.2002 31.0524C57.1665 31.0524 58.7605 29.4505 58.7605 27.4744C58.7605 25.4984 57.1665 23.8965 55.2002 23.8965C53.2339 23.8965 51.6399 25.4984 51.6399 27.4744C51.6399 29.4505 53.2339 31.0524 55.2002 31.0524Z" fill="#23B6C0"/>
<path d="M48.5872 32.8811L43.5702 38.8199C43.119 39.3541 43.1841 40.1547 43.7156 40.6082C44.2471 41.0617 45.0439 40.9963 45.4951 40.4621L50.5121 34.5234C50.9633 33.9892 50.8982 33.1885 50.3667 32.7351C49.8352 32.2816 49.0384 32.347 48.5872 32.8811Z" fill="#23B6C0"/>
<path d="M64.76 14.2127L59.7431 20.1515C59.2918 20.6856 59.3569 21.4863 59.8885 21.9398C60.42 22.3933 61.2167 22.3279 61.668 21.7937L66.6849 15.8549C67.1362 15.3207 67.0711 14.5201 66.5395 14.0666C66.008 13.6131 65.2113 13.6785 64.76 14.2127Z" fill="#23B6C0"/>
<path d="M31.9974 34.2373C31.9974 34.2373 29.6784 37.2685 29.2109 38.2108C28.7434 39.153 32.1162 41.0482 35.0876 43.9254C38.0589 46.8026 45.3671 57.0242 49.3394 53.9639C53.3118 50.9035 60.5011 41.8471 60.5011 41.8471C60.5011 41.8471 52.1655 51.0521 49.5534 51.9068C46.9412 52.7615 44.9181 52.8384 42.0286 49.6852C39.1418 46.5319 34.834 40.9818 33.1463 39.9599C31.4586 38.9354 30.0376 37.6932 30.4761 37.0747C30.9145 36.4563 31.9947 34.2373 31.9947 34.2373H31.9974Z" fill="#23B6C0"/>
<path d="M68.1025 6.771C68.3138 6.9621 69.5763 8.11937 71.1478 9.74644C69.5499 8.18572 68.3059 6.97007 68.1025 6.771Z" fill="#85C0EA"/>
<path d="M78.6725 21.3085C78.3899 21.7411 77.9832 22.0915 77.962 22.118C77.9937 22.0411 78.1918 21.911 78.213 21.8314C79.1004 18.8267 74.1297 12.6476 70.8176 9.21826C73.8999 12.2309 78.6223 17.0563 79.42 17.903C79.4305 17.9163 79.4437 17.9296 79.4543 17.9402C79.4543 17.9402 79.457 17.9455 79.4596 17.9455C80.1754 18.7232 79.3038 20.3476 78.6725 21.3085Z" fill="#23B6C0"/>
<path d="M30.8774 50.7868C30.8774 59.1663 24.1186 65.9586 15.7804 65.9586C8.36129 65.9586 2.18619 60.5837 0.923699 53.4915C0.765227 52.6156 0.68335 51.7078 0.68335 50.7841C0.68335 42.4046 7.44216 35.6123 15.7804 35.6123C20.5451 35.6123 24.7869 37.8339 27.5548 41.2951C29.6361 43.8989 30.8801 47.1929 30.8801 50.7841L30.8774 50.7868Z" fill="#F8D895"/>
<path d="M30.8773 50.7866C30.8773 59.1661 24.1185 65.9584 15.7803 65.9584C8.36118 65.9584 2.18607 60.5835 0.923584 53.4913C12.4577 50.561 23.0409 44.2332 27.5547 41.2949C29.636 43.8988 30.88 47.1927 30.88 50.7839L30.8773 50.7866Z" fill="#F5C760"/>
<path d="M15.7779 63.2169C22.6089 63.2169 28.1466 57.6518 28.1466 50.7869C28.1466 43.922 22.6089 38.3569 15.7779 38.3569C8.94684 38.3569 3.40918 43.922 3.40918 50.7869C3.40918 57.6518 8.94684 63.2169 15.7779 63.2169Z" fill="#F2AD3C"/>
<path d="M34.3189 2.00658C34.9449 2.44454 35.5312 2.9515 36.0568 3.54075C40.7264 8.71127 39.2817 17.6774 32.8319 23.5672C27.6076 28.3317 20.7035 29.6216 15.783 27.1824H15.7724C14.6209 26.6143 13.5697 25.842 12.6796 24.8572C7.99942 19.6787 9.44679 10.7099 15.9045 4.82011C21.6253 -0.400845 29.3746 -1.44663 34.3189 2.00658Z" fill="#F6C45C"/>
<path d="M16.7444 6.62493C22.0162 2.16575 29.2161 0.400658 32.7289 4.59706C36.2417 8.79347 34.4404 16.1405 29.1659 20.5997C23.8941 25.0589 17.0719 26.4922 13.5565 22.2958C10.0437 18.0993 11.47 11.0815 16.7418 6.62227L16.7444 6.62493Z" fill="#F2AD3C"/>
<path d="M34.319 2.00635C34.9449 2.4443 35.5656 2.92207 36.0569 3.54052C41.0355 9.79664 38.809 17.7488 32.832 23.567C28.0726 28.1987 20.2203 30.1523 14.6289 26.6088C19.0371 27.8722 28.305 28.7747 35.3992 17.2313C38.7984 11.6998 37.3564 6.38324 34.3163 2.00635H34.319Z" fill="#F2AF42"/>
</svg>
