<svg width="117" height="29" viewBox="0 0 117 29" fill="none" xmlns="http://www.w3.org/2000/svg">
<g clip-path="url(#clip0_53_6487)">
<path d="M55.0101 3.01562C58.654 0.158819 64.1643 -0.684773 68.8649 0.554125C70.6261 0.986109 72.6383 1.80525 73.0391 3.46798C73.0836 4.84544 72.4075 6.16585 72.1403 7.51885C69.9135 5.78684 66.6745 5.20814 63.7311 5.59938C60.5529 6.14547 58.3018 8.44803 57.1195 10.8647C55.7632 13.7174 55.1235 16.994 56.3584 19.9567C57.0102 21.5461 58.5001 22.9073 60.4395 23.4085C63.5044 24.1869 66.796 23.2129 69.0795 21.4239C68.626 23.1518 68.4033 24.9205 67.8325 26.6199C67.2535 28.0259 65.3951 28.5312 63.8202 28.7757C59.6702 29.4115 54.8806 28.6983 51.9493 25.9678C49.0747 23.327 48.4148 19.5614 48.5565 16.1096C48.7751 11.313 50.6942 6.31256 55.0101 3.00747V3.01562Z" fill="white"/>
<path d="M27.2846 1.1086C30.3575 0.627714 33.4953 0.350591 36.625 0.432098C39.4915 0.566584 42.5725 1.076 44.6981 2.82839C47.2286 4.8579 47.3014 8.46048 45.2649 10.7671C44.026 12.1609 42.2162 13.1879 40.1919 13.575C41.779 14.1293 43.3418 14.9239 44.1232 16.2729C45.9613 19.4394 44.9694 23.5799 41.8316 25.9151C39.3417 27.8386 35.884 28.5152 32.6046 28.7026C30.1591 28.776 27.653 28.7148 25.3088 28.075C24.0618 27.7531 23.0698 26.8932 22.665 25.8621C22.0496 24.3502 22.2925 22.7078 22.665 21.1755C24.2399 14.492 25.6934 7.78806 27.2886 1.11268L27.2846 1.1086ZM33.0418 5.21245C32.6208 7.13193 32.1228 9.04326 31.7867 10.975C31.6774 11.517 32.4548 11.7452 32.969 11.6678C35.05 11.737 37.3983 11.517 38.9287 10.2047C40.3133 8.9699 40.4955 6.52471 38.5602 5.61183C36.8841 4.82122 34.8719 5.18392 33.0418 5.21245ZM30.6126 16.008C30.0741 17.8419 29.7583 19.7165 29.2927 21.5626C29.1389 22.3573 28.6692 23.2335 29.3777 23.9345C31.5883 23.9263 33.9771 24.0649 35.9124 22.9849C38.2364 21.8479 39.0016 18.7874 37.0744 17.1124C35.3172 15.7716 32.7908 16.0854 30.6126 16.008Z" fill="white"/>
<path d="M77.3103 1.27537C79.4521 0.700749 81.7396 0.659996 83.9745 0.582565C87.0556 0.545887 90.3472 0.623318 93.0558 2.013C95.1449 3.01146 96.396 4.95946 96.6511 6.93192C97.3677 11.3129 94.7806 16.0321 90.1002 18.1472C87.0191 19.6306 83.3793 19.7121 79.9298 19.5206C79.3671 21.6887 78.9905 23.8934 78.3994 26.0574C78.0958 27.2026 77.2293 28.3274 75.8325 28.6738C74.2454 28.8001 72.6462 28.686 71.0591 28.7267C73.2413 19.598 75.1604 10.4204 77.3103 1.27945V1.27537ZM83.5049 5.41997C82.9056 8.06893 82.2821 10.7179 81.7275 13.3709C81.5331 13.9089 81.9906 14.4061 82.5332 14.6465C84.2053 14.9073 85.9948 14.6669 87.4686 13.9496C90.25 12.5681 91.4201 9.33228 90.1448 6.86671C88.8168 4.92278 85.7519 5.26104 83.5049 5.42405V5.41997Z" fill="white"/>
<path d="M7.61583 2.62829C8.70898 2.1474 10.1098 2.38784 10.9277 3.14993C12.1828 4.75561 12.2435 6.75659 12.1828 8.61494C12.1423 10.1187 11.8427 11.6184 11.2111 13.0285C9.07742 10.6974 6.30404 8.79833 3.18652 7.46162C3.99627 5.52177 5.38093 3.59821 7.61583 2.63236V2.62829Z" fill="white"/>
<path d="M99.8257 7.39647C100.826 5.43624 102.186 3.3456 104.66 2.50608C105.911 2.10263 107.227 2.64872 107.98 3.50454C109.462 6.54065 109.109 9.94355 107.947 13.0082C105.7 10.7138 102.959 8.78208 99.8257 7.40054V7.39647Z" fill="white"/>
<path d="M10.9275 3.1499C14.1462 4.85339 16.7374 7.26598 18.863 9.89456C20.6242 12.0789 20.8023 15.1314 19.0938 17.3769C17.0087 20.2907 13.9398 22.6096 10.802 24.7084C9.0246 25.8209 6.89093 27.1495 4.54267 26.6319C2.34016 26.1632 0.98384 24.5005 0 22.8948C4.70462 20.5719 9.29182 17.4828 11.2109 13.0285C11.8425 11.6184 12.1421 10.1187 12.1826 8.61491C12.2433 6.76064 12.1826 4.75965 10.9275 3.1499Z" fill="#F57D31"/>
<path d="M107.979 3.50439C110.801 4.70254 112.826 6.89099 114.753 8.94088C116.235 10.465 117.198 12.4171 116.968 14.414C116.81 16.1094 115.741 17.6213 114.526 18.9417C112.101 21.5703 109.113 23.8036 105.858 25.6823C104.518 26.4077 102.874 27.0394 101.259 26.6278C99.0561 26.1632 97.5904 24.5168 96.6997 22.854C101.489 20.6248 105.943 17.4135 107.947 13.0121C109.109 9.94748 109.461 6.54458 107.979 3.50847V3.50439Z" fill="#F57D31"/>
</g>
<defs>
<clipPath id="clip0_53_6487">
<rect width="117" height="29" fill="white"/>
</clipPath>
</defs>
</svg>
