<svg width="99" height="107" viewBox="0 0 99 107" fill="none" xmlns="http://www.w3.org/2000/svg">
<g clip-path="url(#clip0_71_3061)">
<path d="M96.443 61.0973C96.443 61.0973 98.532 59.1424 98.9639 54.3109C99.3959 49.4793 95.6755 50.6817 97.4868 43.9405C99.2982 37.1994 92.5273 35.2717 91.4821 32.4234C90.437 29.5752 93.0736 27.3346 91.1646 22.909C89.2556 18.4834 85.6175 18.4007 83.3499 12.8968C81.0822 7.39299 75.0865 -0.668213 66.8591 0.0441721C58.6317 0.756557 52.024 3.53499 49.2717 14.1781C46.5194 24.8212 49.678 23.0512 45.8831 28.6404C42.0882 34.2296 43.5653 36.7443 44.9446 38.8039C46.324 40.8635 43.4856 42.2081 42.713 45.5127C41.9403 48.8173 41.8002 53.6761 45.8831 56.3317C49.9659 58.9873 96.4417 61.0973 96.4417 61.0973H96.443Z" fill="#EB672B"/>
<path d="M79.4146 46.0023L82.4498 46.9706C82.4498 46.9706 86.5853 48.4006 88.2707 49.4246C89.956 50.4485 93.1287 52.384 94.6276 54.4423C96.1265 56.5006 97.4686 58.2977 97.8594 63.9412C98.2502 69.5847 97.5471 78.2044 97.5471 78.2044C97.5471 78.2044 96.7899 85.8053 95.7524 89.7008C94.715 93.5963 94.5903 94.7134 93.6468 96.486C92.7032 98.2585 91.973 99.1855 91.973 99.1855C91.973 99.1855 91.5436 99.8966 88.9006 100.694L88.9828 102.68C88.9828 102.68 89.2297 102.972 87.9519 103.337C86.674 103.702 83.3072 105.015 80.4225 105.47C77.5378 105.925 73.0243 107 68.0686 106.934C63.1128 106.868 62.1963 107.323 54.8842 106.03C47.5721 104.737 43.5021 102.464 43.5021 102.464L43.736 95.0133C43.736 95.0133 40.3577 96.2804 36.8829 96.0166C33.0481 95.7257 29.7495 90.889 29.7495 90.889C29.7495 90.889 23.5506 82.224 21.3652 76.4797L33.4248 69.383H36.4201C36.4201 69.383 37.9036 64.5023 41.2113 59.0153C44.5189 53.5282 44.8339 51.5165 50.6933 48.0981C50.6933 48.0981 54.0036 46.6164 55.7982 46.2428C55.7982 46.2428 59.5339 50.9864 66.6738 50.7356C73.8136 50.4847 78.0906 47.2447 79.4146 46.001V46.0023Z" fill="#F4F8FD"/>
<path d="M39.6797 85.6476C39.6797 85.6476 40.1296 86.7065 41.2377 86.5669C42.3459 86.4273 41.3252 89.1579 46.358 91.0287C51.3909 92.8995 52.7368 93.1749 52.7368 93.1749L52.8358 91.9867L42.7045 85.3076L39.681 85.6489L39.6797 85.6476Z" fill="#CCDEF4"/>
<path d="M23.5994 81.1123C23.7524 81.0373 30.0104 80.7516 33.4029 79.5634C36.7954 78.3752 38.7481 77.84 38.7198 78.6545C38.6517 80.6339 39.4642 80.043 39.4642 80.043L44.1692 77.209L40.4489 74.2819L37.1888 73.1377C37.1888 73.1377 31.499 76.8354 26.9482 77.9576C22.3974 79.0798 22.796 79.6461 22.796 79.6461L23.6007 81.1136L23.5994 81.1123Z" fill="#CCDEF4"/>
<path d="M59.0911 8.12054C59.0911 8.12054 60.7765 11.0296 66.6089 13.3542C72.4414 15.6788 72.3372 23.4051 74.0521 24.0749C75.767 24.7446 74.3529 22.3165 76.7235 22.2764C79.094 22.2364 80.2304 25.1751 80.2304 26.6322C80.2304 28.0893 78.8009 31.5013 75.3582 31.5788C71.9156 31.6564 75.141 31.5672 75.141 31.5672C75.141 31.5672 73.4274 34.3482 74.4224 39.5818C75.4174 44.8155 79.4154 45.9649 79.4154 45.9649C79.4154 45.9649 74.3915 50.5016 66.3261 50.6736C58.2607 50.8456 56.0187 46.1782 56.0187 46.1782C56.0187 46.1782 59.6272 45.8666 59.5411 41.5264C59.5411 41.5264 50.7005 40.6588 50.6953 27.1132C50.6902 13.5675 53.9619 12.6612 54.7949 11.8467C55.6279 11.0321 57.6552 9.26217 57.839 8.81482C58.0228 8.36748 58.6078 7.66415 59.0924 8.12313L59.0911 8.12054Z" fill="#F2C9E1"/>
<path d="M27.6542 37.768L1.91395 43.5831C0.591547 43.8818 -0.239665 45.2022 0.0573803 46.5322L7.76166 81.0268C8.0587 82.3568 9.37152 83.1928 10.6939 82.894L36.4342 77.079C37.7566 76.7802 38.5878 75.4599 38.2907 74.1299L30.5865 39.6352C30.2894 38.3053 28.9766 37.4693 27.6542 37.768Z" fill="#EEF3FF"/>
<path d="M11.2803 45.0019L6.53409 46.0741C5.66958 46.2694 5.12617 47.1326 5.32037 48.002L6.38648 52.7754C6.58068 53.6449 7.43892 54.1914 8.30344 53.9961L13.0496 52.9239C13.9141 52.7286 14.4575 51.8654 14.2633 50.9959L13.1972 46.2226C13.003 45.3531 12.1448 44.8066 11.2803 45.0019Z" fill="#F3F1F9"/>
<path d="M13.7646 56.1298L9.01846 57.202C8.15395 57.3973 7.61055 58.2605 7.80474 59.13L8.87086 63.9033C9.06505 64.7728 9.9233 65.3193 10.7878 65.124L15.534 64.0518C16.3985 63.8565 16.9419 62.9933 16.7477 62.1239L15.6816 57.3505C15.4874 56.481 14.6292 55.9345 13.7646 56.1298Z" fill="#F3F1F9"/>
<path d="M12.5001 71.323L13.1994 72.5086C13.274 72.6353 13.4218 72.6987 13.5645 72.6664L14.9014 72.3638C15.2202 72.2914 15.4452 72.6728 15.2292 72.9198L14.3242 73.9554C14.2278 74.0653 14.2124 74.2269 14.287 74.3536L14.9863 75.5392C15.1534 75.8223 14.8629 76.1546 14.5621 76.024L13.3035 75.4784C13.1685 75.4202 13.013 75.4551 12.9166 75.5663L12.0116 76.6019C11.7956 76.8489 11.3906 76.673 11.4215 76.3459L11.5488 74.9729C11.5629 74.8268 11.4806 74.6872 11.3457 74.629L10.0871 74.0834C9.78631 73.9528 9.82744 73.5119 10.1463 73.4395L11.4832 73.137C11.6259 73.1047 11.7313 72.9831 11.7455 72.837L11.8727 71.464C11.9036 71.1369 12.3329 71.0386 12.5001 71.3218V71.323Z" fill="#F7A713"/>
<path d="M18.8204 69.8953L19.5197 71.0809C19.5943 71.2076 19.7421 71.271 19.8848 71.2386L21.2217 70.9361C21.5406 70.8637 21.7655 71.2451 21.5496 71.492L20.6445 72.5276C20.5481 72.6375 20.5327 72.7992 20.6073 72.9259L21.3066 74.1114C21.4737 74.3946 21.1832 74.7269 20.8824 74.5963L19.6238 74.0507C19.4889 73.9925 19.3333 74.0274 19.2369 74.1386L18.3319 75.1742C18.1159 75.4211 17.711 75.2453 17.7418 74.9182L17.8691 73.5452C17.8832 73.3991 17.801 73.2594 17.666 73.2012L16.4074 72.6556C16.1066 72.5251 16.1478 72.0842 16.4666 72.0118L17.8035 71.7092C17.9462 71.6769 18.0516 71.5554 18.0658 71.4093L18.193 70.0362C18.2239 69.7091 18.6533 69.6109 18.8204 69.894V69.8953Z" fill="#F7A713"/>
<path d="M25.3555 68.4178L26.0549 69.6034C26.1294 69.7301 26.2773 69.7934 26.42 69.7611L27.7569 69.4585C28.0757 69.3861 28.3007 69.7676 28.0847 70.0145L27.1797 71.0501C27.0833 71.16 27.0679 71.3216 27.1424 71.4483L27.8417 72.6339C28.0089 72.917 27.7183 73.2493 27.4175 73.1187L26.159 72.5731C26.024 72.515 25.8685 72.5499 25.772 72.6611L24.867 73.6967C24.6511 73.9436 24.2461 73.7678 24.277 73.4407L24.4042 72.0676C24.4184 71.9215 24.3361 71.7819 24.2011 71.7237L22.9426 71.1781C22.6418 71.0475 22.6829 70.6066 23.0017 70.5342L24.3387 70.2317C24.4814 70.1994 24.5868 70.0778 24.6009 69.9318L24.7282 68.5587C24.759 68.2316 25.1884 68.1333 25.3555 68.4165V68.4178Z" fill="#F7A713"/>
<path d="M31.9258 66.9334L32.6252 68.119C32.6997 68.2457 32.8476 68.309 32.9903 68.2767L34.3272 67.9742C34.646 67.9018 34.871 68.2832 34.655 68.5301L33.75 69.5657C33.6536 69.6756 33.6382 69.8372 33.7127 69.9639L34.4121 71.1495C34.5792 71.4327 34.2887 71.7649 33.9878 71.6344L32.7293 71.0888C32.5943 71.0306 32.4388 71.0655 32.3424 71.1767L31.4373 72.2123C31.2214 72.4592 30.8164 72.2834 30.8473 71.9563L30.9746 70.5832C30.9887 70.4371 30.9064 70.2975 30.7714 70.2393L29.5129 69.6937C29.2121 69.5631 29.2532 69.1223 29.572 69.0499L30.909 68.7473C31.0517 68.715 31.1571 68.5935 31.1712 68.4474L31.2985 67.0743C31.3294 66.7472 31.7587 66.649 31.9258 66.9321V66.9334Z" fill="#F7A713"/>
<path d="M26.5835 43.5308L16.6547 45.7738C16.0277 45.9155 15.6337 46.5414 15.7745 47.1719C15.9153 47.8024 16.5377 48.1987 17.1646 48.0571L27.0935 45.814C27.7204 45.6724 28.1144 45.0465 27.9736 44.416C27.8328 43.7855 27.2104 43.3891 26.5835 43.5308Z" fill="#5858A3"/>
<path d="M25.0903 47.2312L17.3714 48.975C16.7445 49.1166 16.3505 49.7426 16.4913 50.3731C16.6321 51.0036 17.2545 51.3999 17.8814 51.2583L25.6002 49.5145C26.2271 49.3728 26.6212 48.7469 26.4804 48.1164C26.3395 47.4859 25.7172 47.0896 25.0903 47.2312Z" fill="#5858A3"/>
<path d="M28.5816 52.4683L18.6527 54.7113C18.0258 54.853 17.6317 55.4789 17.7726 56.1094C17.9134 56.7399 18.5357 57.1362 19.1627 56.9946L29.0915 54.7515C29.7184 54.6099 30.1125 53.984 29.9717 53.3535C29.8308 52.723 29.2085 52.3266 28.5816 52.4683Z" fill="#5858A3"/>
<path d="M27.0864 56.1707L19.3675 57.9145C18.7406 58.0561 18.3466 58.682 18.4874 59.3125C18.6282 59.943 19.2506 60.3393 19.8775 60.1977L27.5963 58.4539C28.2232 58.3123 28.6173 57.6864 28.4765 57.0559C28.3356 56.4254 27.7133 56.0291 27.0864 56.1707Z" fill="#5858A3"/>
<path d="M9.51898 52.3202C9.44699 52.3202 9.375 52.2995 9.31329 52.2594L7.6601 51.207C7.48013 51.0919 7.42613 50.8527 7.54055 50.6717C7.65496 50.4907 7.89278 50.4364 8.07276 50.5515L9.39557 51.3945L11.7802 47.5067C11.8921 47.3244 12.1299 47.2675 12.3112 47.38C12.4924 47.4925 12.549 47.7317 12.4371 47.914L9.84807 52.1353C9.79408 52.2232 9.70667 52.2866 9.60639 52.3098C9.57811 52.3163 9.54854 52.3202 9.52026 52.3202H9.51898Z" fill="#EB672B"/>
<path d="M57.0888 83.9531C57.0888 83.9531 55.4601 83.7566 52.8787 80.5166C50.2974 77.2766 49.8063 75.7936 46.6568 74.4762C43.5072 73.1587 37.5951 71.0694 37.0667 71.2013C36.5383 71.3331 35.8737 72.1929 37.1657 73.5233C38.4576 74.8537 40.9426 75.3502 41.5918 76.2242C41.5918 76.2242 40.0453 76.4116 39.5773 77.4731C39.1094 78.5346 39.6339 79.0647 39.6339 79.0647C39.6339 79.0647 38.4808 78.9237 38.2854 80.0033C38.09 81.0829 38.2622 82.0487 38.2622 82.0487C38.2622 82.0487 37.7442 82.3564 37.9691 83.5019C38.1941 84.6474 39.4604 86.0605 40.8076 85.7942C42.1548 85.5278 42.0996 85.3326 42.3657 86.1316C42.6318 86.9306 44.9971 89.881 47.7122 90.7136C50.4272 91.5463 53.7696 92.2612 53.7696 92.2612L57.0888 83.9531Z" fill="#F2C9E1"/>
<path d="M81.4339 67.8945C81.4339 67.8945 80.1638 84.538 78.0633 84.9336C75.9627 85.3292 55.8095 82.0621 55.8095 82.0621C55.8095 82.0621 54.1948 85.7158 53.6241 88.0314C53.0533 90.3469 52.309 93.5598 52.7242 94.1545C53.1394 94.7493 65.1424 101.228 79.4144 101.894C93.6863 102.56 94.5721 82.3762 94.6711 81.9716C94.77 81.5669 81.4339 67.8945 81.4339 67.8945Z" fill="#F4F8FD"/>
<path d="M65.8526 83.6129L74.4515 84.6911C74.4515 84.6911 77.5728 85.1553 78.3312 84.7907C79.0897 84.4261 81.4101 67.5693 81.4101 67.5693C81.4101 67.5693 76.4209 74.3622 76.6176 79.186C76.8143 84.0098 71.9936 82.7634 67.7745 82.4622C63.5554 82.161 60.9277 82.8656 60.9277 82.8656L65.8513 83.6129H65.8526Z" fill="#CCDEF4"/>
<path d="M88.9007 100.694C88.9007 100.694 89.1218 102.609 88.9996 102.897C88.8775 103.186 86.0391 104.003 86.0391 104.003C86.0391 104.003 86.4247 103.879 86.9004 102.625C87.376 101.371 87.4004 101.107 87.4004 101.107L88.8994 100.694H88.9007Z" fill="#CCDEF4"/>
<path d="M79.4158 45.9638L77.9824 45.2734C78.4234 45.5411 78.9016 45.7686 79.4158 45.9638Z" stroke="#F6EBF5" stroke-miterlimit="10"/>
<path d="M67.6535 40.2648C66.6251 40.8776 63.6889 42.2946 59.5393 41.5241C59.5393 41.5241 59.5842 42.3334 59.4531 42.614C59.4531 42.614 65.3576 43.0846 67.7551 40.3876C67.8155 40.3191 67.7319 40.2182 67.6535 40.2648Z" fill="#ECA3C8"/>
<path d="M56.9643 19.0391C56.8974 19.0391 56.8306 19.0184 56.7727 18.9744C54.7287 17.4423 52.7233 18.7275 52.6385 18.7831C52.4906 18.88 52.2914 18.8387 52.1937 18.69C52.096 18.5413 52.1371 18.3409 52.285 18.2426C52.3094 18.2271 54.7455 16.6472 57.1571 18.456C57.2998 18.5633 57.3281 18.765 57.2227 18.9085C57.1597 18.9938 57.0633 19.0391 56.9643 19.0391Z" fill="#4D4B9A"/>
<path d="M68.7693 20.1821C68.6948 20.1821 68.6202 20.1562 68.5598 20.1045C65.9129 17.8213 63.4087 19.6042 63.3033 19.6805C63.1606 19.7852 62.9587 19.7542 62.8546 19.6094C62.7505 19.4658 62.7813 19.2642 62.924 19.1581C62.9536 19.1362 65.9373 16.9899 68.9789 19.6132C69.1139 19.7296 69.1293 19.9339 69.0136 20.0696C68.9506 20.1446 68.8606 20.1821 68.7693 20.1821Z" fill="#4D4B9A"/>
<path d="M58.7804 30.3906C57.5052 30.3906 56.5899 29.8889 56.2081 29.3174C55.9407 28.9179 55.9137 28.468 56.1348 28.084C56.7904 26.9424 58.4989 22.4005 58.5169 22.3552C58.567 22.222 58.7149 22.1548 58.8486 22.2052C58.981 22.2557 59.0478 22.4043 58.9977 22.5388C58.927 22.7276 57.2571 27.1674 56.5809 28.3439C56.4266 28.6128 56.5256 28.8649 56.6362 29.0304C56.9858 29.5528 58.0104 30.026 59.4309 29.8294C59.5697 29.81 59.7009 29.9083 59.7201 30.0505C59.7394 30.1914 59.6417 30.322 59.5003 30.3414C59.2496 30.3763 59.0093 30.3918 58.7817 30.3918L58.7804 30.3906Z" fill="#4D4B9A"/>
<path d="M65.4069 25.2571C66.021 25.2571 66.5189 24.618 66.5189 23.8297C66.5189 23.0414 66.021 22.4023 65.4069 22.4023C64.7928 22.4023 64.2949 23.0414 64.2949 23.8297C64.2949 24.618 64.7928 25.2571 65.4069 25.2571Z" fill="#4D4B9A"/>
<path d="M54.8829 24.4993C55.4665 24.4993 55.9396 23.8816 55.9396 23.1198C55.9396 22.3579 55.4665 21.7402 54.8829 21.7402C54.2993 21.7402 53.8262 22.3579 53.8262 23.1198C53.8262 23.8816 54.2993 24.4993 54.8829 24.4993Z" fill="#4D4B9A"/>
<path d="M61.1312 32.5349C62.7008 32.5349 63.665 33.321 63.6817 33.3352C63.818 33.4503 63.836 33.6533 63.7215 33.7903C63.6084 33.9274 63.4053 33.9455 63.269 33.8317C63.1688 33.749 60.8407 31.8911 57.416 34.7691C57.2798 34.8828 57.0779 34.8647 56.9635 34.7277C56.8504 34.5906 56.8684 34.3864 57.0047 34.2726C58.6026 32.9306 60.0192 32.5362 61.1312 32.5362L61.1312 32.5349Z" fill="#4D4B9A"/>
<path d="M55.8008 46.2405C57.5915 48.4553 61.3401 51.4832 68.0905 50.5717C74.5155 49.7029 77.8271 47.505 79.4147 45.9639" stroke="#F6EBF5" stroke-miterlimit="10"/>
<path d="M81.5061 67.3461C81.5061 67.3461 79.7475 80.6707 79.1793 83.1156C78.6111 85.5604 77.9979 84.7782 77.9979 84.7782C75.153 85.2838 55.8482 82.0489 55.8482 82.0489C52.3734 89.6628 52.6858 94.0587 52.6858 94.0587C74.3084 104.473 85.8101 102.362 91.1682 99.7862C96.5262 97.2107 99.8905 67.403 96.9363 58.6915C93.9822 49.98 82.8546 47.1214 79.8349 46.1116C76.8152 45.1019 74.9782 43.1406 74.2789 38.8029C73.5795 34.4652 74.9473 31.5756 74.9473 31.5756C74.9473 31.5756 72.5704 31.6079 75.3574 31.5756C78.1444 31.5433 80.0984 28.9239 80.0547 26.2631C80.011 23.6023 78.2537 22.153 76.7226 22.2732C74.4203 22.453 75.5361 24.6974 74.0513 24.0717C73.307 23.7575 73.3571 23.1162 71.6538 18.7992C69.336 12.923 65.8278 13.5966 62.5021 11.2746C60.1174 9.60933 59.9889 9.38049 59.4798 8.6513C59.3667 8.48968 58.9849 7.96735 58.6661 8.02036C58.3473 8.07337 57.9475 8.45219 57.7354 8.97323C57.4641 9.63907 53.2926 12.3076 52.0893 15.2787C51.2421 17.3693 48.6544 30.496 53.2167 37.2631C57.7791 44.0301 65.5141 41.4908 67.6198 40.2846" stroke="#F6EBF5" stroke-miterlimit="10"/>
<path d="M59.5399 41.6533C59.5399 41.6533 59.689 44.4007 57.7505 45.51C55.8106 46.6193 51.8152 46.5599 47.2927 50.3972C43.1828 53.8828 39.3237 62.8064 36.9043 67.8939" stroke="#F6EBF5" stroke-miterlimit="10"/>
<path d="M48.9732 60.9707C46.6296 64.8274 45.3017 69.2698 44.5625 73.6411" stroke="#F6EBF5" stroke-miterlimit="10"/>
<path d="M88.9005 100.696C88.9005 100.696 89.1241 102.76 88.9005 102.958C88.6768 103.155 80.0316 106.309 71.3504 106.795C62.6692 107.281 51.7731 106.664 43.502 102.468C43.502 102.468 43.6125 99.2043 43.7359 95.0166" stroke="#F6EBF5" stroke-miterlimit="10"/>
<path d="M23.0586 80.0752C25.7081 85.0761 30.7705 93.3933 34.2273 95.1956C36.9847 96.6346 40.8336 95.9351 43.7364 95.0159" stroke="#F6EBF5" stroke-miterlimit="10"/>
<path d="M46.1443 77.0512C46.1443 77.0512 43.7905 75.7092 41.5781 76.0466" stroke="#5858A3" stroke-linecap="round" stroke-linejoin="round"/>
<path d="M43.9948 79.7179C43.9948 79.7179 41.7952 78.3655 39.5957 78.7107" stroke="#5858A3" stroke-linecap="round" stroke-linejoin="round"/>
<path d="M43.3703 82.9521C43.3703 82.9521 40.7748 81.2597 38.3555 82.3198" stroke="#5858A3" stroke-linecap="round" stroke-linejoin="round"/>
<path d="M37.0102 89.9112L36.5787 89.4828L36.984 89.0745C37.097 88.9607 37.0968 88.7765 36.9837 88.6642C36.8706 88.5519 36.6864 88.5531 36.5735 88.6669L36.1681 89.0752L35.7512 88.6613C35.6372 88.5481 35.454 88.5502 35.341 88.664C35.2281 88.7777 35.2282 88.9619 35.3413 89.0742L35.7582 89.4881L35.3529 89.8964C35.24 90.0102 35.2401 90.1943 35.3532 90.3066C35.4663 90.4189 35.6505 90.4177 35.7634 90.304L36.1688 89.8957L36.6003 90.3241C36.7143 90.4373 36.8976 90.4352 37.0105 90.3214C37.1235 90.2076 37.1233 90.0235 37.0102 89.9112Z" fill="#FFE0B2"/>
<path d="M25.3375 87.4955L25.0587 87.8355L24.7368 87.5715C24.6469 87.4977 24.5144 87.5104 24.441 87.5999C24.3676 87.6893 24.3811 87.8218 24.4711 87.8955L24.793 88.1595L24.524 88.4876C24.4506 88.577 24.4641 88.7094 24.5541 88.7832C24.644 88.857 24.7765 88.8443 24.8499 88.7548L25.1189 88.4268L25.4408 88.6908C25.5308 88.7646 25.6633 88.7519 25.7366 88.6624C25.81 88.5729 25.7965 88.4405 25.7066 88.3667L25.3846 88.1028L25.6634 87.7628C25.7368 87.6733 25.7233 87.5409 25.6334 87.4671C25.5434 87.3934 25.4109 87.4061 25.3375 87.4955Z" fill="#FFE0B2"/>
<path d="M30.602 98.2157C30.4773 98.3967 30.3333 98.5648 30.1649 98.716C28.6904 100.062 26.1348 99.6456 24.4546 97.7865C23.0971 96.2802 22.7281 94.2918 23.4236 92.8735V92.8709C23.5856 92.5386 23.8054 92.2361 24.0869 91.9801C25.564 90.6316 28.1209 91.0479 29.7998 92.9097C31.2885 94.5581 31.5867 96.7922 30.602 98.2157Z" fill="#F6C45C"/>
<path d="M29.2843 93.1517C30.5557 94.6709 31.0584 96.746 29.8628 97.7583C28.666 98.7706 26.5719 98.2509 25.3005 96.7317C24.0291 95.2126 23.6203 93.2461 24.8171 92.2338C26.014 91.2214 28.0142 91.6326 29.2856 93.1517H29.2843Z" fill="#F2AD3C"/>
<path d="M30.6018 98.2155C30.4771 98.3965 30.3408 98.575 30.1647 98.7159C28.3804 100.15 26.114 99.5097 24.4544 97.7863C23.1342 96.4145 22.5775 94.152 23.5879 92.541C23.228 93.8106 22.9709 96.4818 26.2618 98.5271C27.8392 99.5071 29.3548 99.0908 30.6031 98.2155H30.6018Z" fill="#F2AF42"/>
<path d="M38.536 96.5598C38.716 96.6853 38.8831 96.8301 39.0335 96.9994C40.3718 98.4824 39.9578 101.053 38.1092 102.742C36.6116 104.108 34.6344 104.479 33.2242 103.779H33.2216C32.8913 103.616 32.5904 103.395 32.3359 103.112C30.9951 101.627 31.409 99.0551 33.2602 97.3666C34.8993 95.8694 37.1207 95.5695 38.536 96.5598Z" fill="#F6C45C"/>
<path d="M33.4998 97.8849C35.0103 96.6063 37.0736 96.1007 38.0801 97.3031C39.0867 98.5068 38.5699 100.613 37.0594 101.892C35.5489 103.17 33.5936 103.581 32.587 102.378C31.5805 101.174 31.9893 99.1623 33.4998 97.8836V97.8849Z" fill="#F2AD3C"/>
<path d="M38.5367 96.5599C38.7167 96.6853 38.8941 96.8223 39.0342 96.9995C40.4599 98.794 39.8235 101.073 38.1099 102.743C36.746 104.07 34.4963 104.63 32.8945 103.614C34.1569 103.976 36.8128 104.235 38.8465 100.925C39.821 99.3383 39.407 97.814 38.5367 96.5586V96.5599Z" fill="#F2AF42"/>
<path d="M34.0243 81.5755C34.2043 81.7009 34.3714 81.8457 34.5218 82.0151C35.86 83.498 35.4461 86.0683 33.5975 87.7581C32.0999 89.1234 30.1227 89.4945 28.7125 88.795H28.7099C28.3795 88.6321 28.0787 88.411 27.8242 88.1279C26.4834 86.6423 26.8973 84.0708 28.7485 82.3822C30.3875 80.8851 32.6089 80.5851 34.0243 81.5755Z" fill="#F6C45C"/>
<path d="M28.99 82.8986C30.5005 81.6199 32.5638 81.1144 33.5704 82.3168C34.5769 83.5205 34.0601 85.6266 32.5496 86.9053C31.0391 88.184 29.0839 88.5951 28.0773 87.3914C27.0707 86.1877 27.4795 84.176 28.99 82.8973V82.8986Z" fill="#F2AD3C"/>
<path d="M34.025 81.5745C34.205 81.6999 34.3824 81.837 34.5225 82.0141C35.9482 83.8087 35.3118 86.088 33.5982 87.7572C32.2343 89.085 29.9846 89.6448 28.3828 88.6286C29.6452 88.9906 32.3011 89.2492 34.3348 85.9394C35.3092 84.353 34.8953 82.8286 34.025 81.5732V81.5745Z" fill="#F2AF42"/>
<path d="M27.7767 97.7532L27.3098 98.228L26.86 97.7856C26.7346 97.6624 26.5331 97.6626 26.4096 97.7881C26.2861 97.9137 26.2884 98.1142 26.4147 98.2384L26.8645 98.6808L26.4139 99.1391C26.2913 99.2638 26.2926 99.4652 26.4189 99.5894C26.5452 99.7136 26.7458 99.7125 26.8693 99.5869L27.3199 99.1286L27.7698 99.571C27.8952 99.6943 28.0966 99.6941 28.2201 99.5685C28.3436 99.443 28.3414 99.2424 28.2151 99.1182L27.7652 98.6758L28.2321 98.201C28.3547 98.0764 28.3533 97.8749 28.227 97.7507C28.1008 97.6265 27.9002 97.6277 27.7767 97.7532Z" fill="#FFE0B2"/>
<path d="M10 59.3846L15 62.6154M13.8462 58L11.5385 64" stroke="#EF6C00" stroke-linecap="round" stroke-linejoin="round"/>
</g>
<defs>
<clipPath id="clip0_71_3061">
<rect width="99" height="107" fill="white"/>
</clipPath>
</defs>
</svg>
