<svg width="164" height="164" viewBox="0 0 164 164" fill="none" xmlns="http://www.w3.org/2000/svg">
<circle cx="82" cy="82" r="82" fill="#CFDFFF"/>
<g clip-path="url(#clip0_53_5564)">
<path d="M136.368 89.4799C136.368 89.4799 139.212 86.8325 139.8 80.2894C140.388 73.7463 135.323 75.3747 137.789 66.2455C140.255 57.1163 131.036 54.5057 129.613 50.6485C128.19 46.7913 131.78 43.757 129.181 37.7637C126.582 31.7704 121.628 31.6583 118.541 24.2047C115.453 16.7512 107.29 5.83433 96.0875 6.79908C84.8854 7.76382 75.8887 11.5265 72.1413 25.9399C68.3938 40.3532 72.6944 37.9563 67.5274 45.5254C62.3604 53.0945 64.3716 56.5 66.2497 59.2892C68.1278 62.0784 64.2631 63.8993 63.2111 68.3746C62.1592 72.8499 61.9684 79.4297 67.5274 83.0261C73.0865 86.6224 136.366 89.4799 136.366 89.4799H136.368Z" fill="#EB672B"/>
<path d="M113.183 69.0384L117.316 70.3498C117.316 70.3498 122.946 72.2863 125.241 73.673C127.536 75.0597 131.856 77.6808 133.896 80.4682C135.937 83.2556 137.765 85.6894 138.297 93.332C138.829 100.975 137.871 112.648 137.871 112.648C137.871 112.648 136.841 122.941 135.428 128.217C134.015 133.492 133.846 135.005 132.561 137.406C131.276 139.806 130.282 141.061 130.282 141.061C130.282 141.061 129.697 142.024 126.099 143.105L126.211 145.794C126.211 145.794 126.547 146.19 124.807 146.684C123.067 147.177 118.483 148.956 114.555 149.573C110.628 150.189 104.482 151.644 97.7347 151.555C90.9872 151.465 89.7392 152.082 79.7833 150.331C69.8274 148.58 64.2859 145.502 64.2859 145.502L64.6045 135.411C64.6045 135.411 60.0046 137.127 55.2735 136.77C50.0522 136.376 45.5609 129.826 45.5609 129.826C45.5609 129.826 37.1208 118.091 34.1453 110.312L50.5651 100.702H54.6434C54.6434 100.702 56.6632 94.0919 61.1668 86.6611C65.6704 79.2303 66.0993 76.5059 74.0772 71.8766C74.0772 71.8766 78.5843 69.8701 81.0278 69.364C81.0278 69.364 86.1143 75.7881 95.8356 75.4484C105.557 75.1087 111.38 70.721 113.183 69.0366V69.0384Z" fill="#F4F8FD"/>
<path d="M59.0803 122.728C59.0803 122.728 59.6929 124.162 61.2017 123.972C62.7105 123.783 61.3207 127.481 68.1733 130.015C75.0258 132.548 76.8584 132.921 76.8584 132.921L76.9932 131.312L63.1988 122.267L59.0821 122.729L59.0803 122.728Z" fill="#CCDEF4"/>
<path d="M37.1873 116.586C37.3956 116.484 45.9162 116.097 50.5353 114.488C55.1544 112.879 57.8132 112.154 57.7747 113.257C57.6819 115.938 58.7881 115.138 58.7881 115.138L65.1943 111.3L60.1289 107.336L55.69 105.786C55.69 105.786 47.9431 110.794 41.7469 112.313C35.5507 113.833 36.0934 114.6 36.0934 114.6L37.1891 116.587L37.1873 116.586Z" fill="#CCDEF4"/>
<path d="M85.5105 17.737C85.5105 17.737 87.8052 21.6765 95.7464 24.8247C103.688 27.9728 103.546 38.4361 105.881 39.3431C108.216 40.25 106.29 36.9619 109.518 36.9076C112.746 36.8533 114.293 40.8331 114.293 42.8064C114.293 44.7796 112.347 49.4002 107.659 49.5053C102.972 49.6103 107.363 49.4895 107.363 49.4895C107.363 49.4895 105.03 53.2557 106.385 60.3433C107.74 67.431 113.183 68.9875 113.183 68.9875C113.183 68.9875 106.343 75.1314 95.3613 75.3643C84.3798 75.5971 81.3272 69.2764 81.3272 69.2764C81.3272 69.2764 86.2404 68.8544 86.1231 62.9767C86.1231 62.9767 74.0861 61.8018 74.0791 43.4577C74.0721 25.1136 78.5267 23.8862 79.6609 22.7831C80.7951 21.68 83.5554 19.2831 83.8057 18.6773C84.056 18.0715 84.8524 17.119 85.5123 17.7405L85.5105 17.737Z" fill="#F2C9E1"/>
<path d="M42.707 57.8871L7.66004 65.7621C5.85952 66.1667 4.72777 67.9547 5.13222 69.7558L15.6221 116.47C16.0265 118.271 17.814 119.403 19.6145 118.999L54.6614 111.124C56.462 110.719 57.5937 108.931 57.1893 107.13L46.6994 60.4157C46.295 58.6146 44.5075 57.4825 42.707 57.8871Z" fill="white"/>
<path d="M20.4124 67.6833L13.9501 69.1354C12.7731 69.3998 12.0332 70.5688 12.2976 71.7463L13.7492 78.2106C14.0136 79.388 15.1821 80.1281 16.3592 79.8637L22.8214 78.4116C23.9985 78.1471 24.7384 76.9782 24.474 75.8007L23.0224 69.3364C22.758 68.1589 21.5895 67.4188 20.4124 67.6833Z" fill="#F3F1F9"/>
<path d="M23.7964 82.7531L17.3342 84.2052C16.1571 84.4697 15.4172 85.6386 15.6816 86.8161L17.1332 93.2804C17.3976 94.4578 18.5662 95.198 19.7433 94.9335L26.2055 93.4814C27.3826 93.2169 28.1224 92.048 27.858 90.8705L26.4064 84.4062C26.142 83.2287 24.9735 82.4886 23.7964 82.7531Z" fill="#F3F1F9"/>
<path d="M22.075 103.328L23.0272 104.933C23.1287 105.105 23.33 105.191 23.5243 105.147L25.3446 104.737C25.7787 104.639 26.085 105.156 25.791 105.49L24.5587 106.893C24.4275 107.041 24.4065 107.26 24.508 107.432L25.4602 109.037C25.6877 109.421 25.2921 109.871 24.8825 109.694L23.169 108.955C22.9852 108.876 22.7734 108.924 22.6421 109.074L21.4099 110.477C21.1158 110.811 20.5645 110.573 20.6065 110.13L20.7798 108.271C20.799 108.073 20.687 107.884 20.5032 107.805L18.7897 107.066C18.3801 106.889 18.4361 106.292 18.8702 106.194L20.6905 105.784C20.8848 105.741 21.0283 105.576 21.0476 105.378L21.2209 103.519C21.2629 103.076 21.8475 102.943 22.075 103.326V103.328Z" fill="#F7A713"/>
<path d="M30.6778 101.395L31.63 103C31.7315 103.172 31.9328 103.258 32.1271 103.214L33.9474 102.804C34.3815 102.706 34.6878 103.223 34.3937 103.557L33.1615 104.96C33.0302 105.108 33.0092 105.327 33.1108 105.499L34.0629 107.104C34.2905 107.488 33.8949 107.938 33.4853 107.761L31.7718 107.022C31.588 106.943 31.3762 106.991 31.2449 107.141L30.0127 108.544C29.7186 108.878 29.1673 108.64 29.2093 108.197L29.3826 106.337C29.4018 106.14 29.2898 105.951 29.106 105.872L27.3924 105.133C26.9829 104.956 27.0389 104.359 27.473 104.261L29.2933 103.851C29.4876 103.807 29.6311 103.643 29.6504 103.445L29.8236 101.586C29.8656 101.143 30.4503 101.009 30.6778 101.393V101.395Z" fill="#F7A713"/>
<path d="M39.5782 99.3937L40.5304 100.999C40.6319 101.171 40.8332 101.257 41.0275 101.213L42.8478 100.803C43.2819 100.705 43.5882 101.222 43.2941 101.556L42.0619 102.959C41.9306 103.107 41.9096 103.326 42.0112 103.498L42.9633 105.103C43.1909 105.487 42.7953 105.937 42.3857 105.76L40.6722 105.021C40.4884 104.942 40.2766 104.99 40.1453 105.14L38.9131 106.543C38.619 106.877 38.0677 106.639 38.1097 106.196L38.283 104.336C38.3022 104.139 38.1902 103.95 38.0064 103.871L36.2928 103.132C35.8833 102.955 35.9393 102.358 36.3733 102.26L38.1937 101.85C38.388 101.806 38.5315 101.642 38.5508 101.444L38.724 99.5846C38.766 99.1416 39.3507 99.0085 39.5782 99.392V99.3937Z" fill="#F7A713"/>
<path d="M48.5225 97.3835L49.4747 98.989C49.5762 99.1606 49.7775 99.2464 49.9718 99.2026L51.7921 98.7929C52.2262 98.6949 52.5325 99.2114 52.2385 99.5458L51.0062 100.948C50.875 101.097 50.854 101.316 50.9555 101.488L51.9077 103.093C52.1352 103.477 51.7396 103.927 51.3301 103.75L49.6165 103.011C49.4327 102.932 49.2209 102.979 49.0896 103.13L47.8574 104.532C47.5633 104.867 47.012 104.629 47.054 104.186L47.2273 102.326C47.2465 102.128 47.1345 101.939 46.9507 101.86L45.2372 101.122C44.8276 100.945 44.8836 100.348 45.3177 100.25L47.138 99.84C47.3323 99.7962 47.4758 99.6316 47.4951 99.4337L47.6684 97.5743C47.7104 97.1313 48.295 96.9983 48.5225 97.3817V97.3835Z" fill="#F7A713"/>
<path d="M41.2496 65.6903L27.7308 68.7279C26.8773 68.9197 26.3407 69.7674 26.5325 70.6212C26.7242 71.4751 27.5716 72.0118 28.4252 71.82L41.9439 68.7823C42.7975 68.5905 43.334 67.7429 43.1423 66.889C42.9505 66.0352 42.1032 65.4985 41.2496 65.6903Z" fill="#5858A3"/>
<path d="M39.2156 70.7023L28.7059 73.0639C27.8524 73.2556 27.3158 74.1033 27.5076 74.9572C27.6993 75.811 28.5467 76.3477 29.4003 76.1559L39.9099 73.7944C40.7635 73.6026 41.3 72.755 41.1083 71.9011C40.9165 71.0472 40.0692 70.5105 39.2156 70.7023Z" fill="#5858A3"/>
<path d="M43.9688 77.7948L30.4501 80.8324C29.5965 81.0242 29.06 81.8719 29.2517 82.7257C29.4434 83.5796 30.2908 84.1163 31.1444 83.9245L44.6632 80.8868C45.5167 80.695 46.0533 79.8474 45.8615 78.9935C45.6698 78.1397 44.8224 77.603 43.9688 77.7948Z" fill="#5858A3"/>
<path d="M41.9348 82.8083L31.4252 85.1698C30.5716 85.3616 30.0351 86.2093 30.2268 87.0631C30.4185 87.917 31.2659 88.4537 32.1195 88.2619L42.6292 85.9004C43.4827 85.7086 44.0193 84.8609 43.8275 84.0071C43.6358 83.1532 42.7884 82.6165 41.9348 82.8083Z" fill="#5858A3"/>
<path d="M18.016 77.5931C17.918 77.5931 17.82 77.5651 17.736 77.5108L15.4851 76.0856C15.24 75.9297 15.1665 75.6058 15.3223 75.3607C15.4781 75.1156 15.8019 75.042 16.0469 75.1979L17.848 76.3394L21.0949 71.0745C21.2471 70.8276 21.5709 70.7506 21.8177 70.9029C22.0645 71.0552 22.1416 71.3792 21.9893 71.626L18.4641 77.3427C18.3906 77.4618 18.2716 77.5476 18.1351 77.5791C18.0965 77.5878 18.0563 77.5931 18.0178 77.5931H18.016Z" fill="#EB672B"/>
<path d="M21.3644 92.5003C21.2664 92.5003 21.1684 92.4723 21.0844 92.418L18.8334 90.9928C18.5884 90.837 18.5149 90.513 18.6707 90.2679C18.8264 90.0228 19.1503 89.9493 19.3953 90.1051L21.1964 91.2467L24.4432 85.9817C24.5955 85.7348 24.9193 85.6578 25.1661 85.8101C25.4129 85.9625 25.4899 86.2864 25.3377 86.5333L21.8125 92.2499C21.739 92.369 21.62 92.4548 21.4834 92.4863C21.4449 92.4951 21.4047 92.5003 21.3662 92.5003H21.3644Z" fill="#EB672B"/>
<path d="M82.785 120.432C82.785 120.432 80.5674 120.166 77.0527 115.779C73.538 111.391 72.8694 109.383 68.5811 107.598C64.2928 105.814 56.2431 102.985 55.5237 103.163C54.8043 103.342 53.8994 104.506 55.6584 106.308C57.4175 108.11 60.8009 108.782 61.6848 109.966C61.6848 109.966 59.5792 110.219 58.9421 111.657C58.3049 113.094 59.0191 113.812 59.0191 113.812C59.0191 113.812 57.449 113.621 57.183 115.083C56.9169 116.545 57.1515 117.853 57.1515 117.853C57.1515 117.853 56.4461 118.27 56.7524 119.821C57.0587 121.373 58.7828 123.286 60.6171 122.926C62.4515 122.565 62.3762 122.301 62.7385 123.383C63.1008 124.465 66.3214 128.46 70.0181 129.588C73.7148 130.715 78.2657 131.684 78.2657 131.684L82.785 120.432Z" fill="#F2C9E1"/>
<path d="M115.931 98.6846C115.931 98.6846 114.202 121.224 111.342 121.76C108.482 122.295 81.0419 117.871 81.0419 117.871C81.0419 117.871 78.8434 122.819 78.0663 125.955C77.2891 129.091 76.2757 133.442 76.8411 134.247C77.4064 135.052 93.7492 143.826 113.181 144.728C132.614 145.63 133.819 118.296 133.954 117.748C134.089 117.2 115.931 98.6846 115.931 98.6846Z" fill="#F4F8FD"/>
<path d="M94.7172 119.971L106.425 121.432C106.425 121.432 110.675 122.06 111.708 121.567C112.74 121.073 115.9 98.2446 115.9 98.2446C115.9 98.2446 109.107 107.444 109.374 113.976C109.642 120.509 103.079 118.821 97.334 118.413C91.5894 118.005 88.0117 118.959 88.0117 118.959L94.7155 119.971H94.7172Z" fill="#CCDEF4"/>
<path d="M126.099 143.104C126.099 143.104 126.4 145.698 126.234 146.088C126.067 146.478 122.203 147.585 122.203 147.585C122.203 147.585 122.728 147.417 123.375 145.719C124.023 144.02 124.056 143.663 124.056 143.663L126.097 143.104H126.099Z" fill="#CCDEF4"/>
<path d="M113.183 68.9858L111.231 68.0508C111.832 68.4132 112.483 68.7214 113.183 68.9858Z" stroke="#F6EBF5" stroke-miterlimit="10"/>
<path d="M97.1693 61.2675C95.769 62.0974 91.7712 64.0164 86.1212 62.9729C86.1212 62.9729 86.1824 64.069 86.0039 64.4489C86.0039 64.4489 94.0432 65.0862 97.3075 61.4339C97.3898 61.3411 97.276 61.2045 97.1693 61.2675Z" fill="#ECA3C8"/>
<path d="M82.6153 32.5235C82.5243 32.5235 82.4333 32.4955 82.3545 32.4359C79.5715 30.3611 76.841 32.1015 76.7255 32.1768C76.5242 32.3081 76.2529 32.2521 76.1198 32.0507C75.9868 31.8494 76.0428 31.578 76.2441 31.4449C76.2774 31.4239 79.5942 29.2843 82.8779 31.7338C83.0721 31.8791 83.1107 32.1523 82.9671 32.3466C82.8814 32.4622 82.7501 32.5235 82.6153 32.5235Z" fill="#4D4B9A"/>
<path d="M98.6868 34.0712C98.5852 34.0712 98.4837 34.0362 98.4015 33.9661C94.7975 30.874 91.3879 33.2885 91.2444 33.3918C91.0501 33.5336 90.7753 33.4916 90.6335 33.2955C90.4917 33.1012 90.5337 32.828 90.728 32.6845C90.7683 32.6547 94.8308 29.7482 98.9721 33.3008C99.1558 33.4584 99.1769 33.735 99.0193 33.9188C98.9336 34.0204 98.811 34.0712 98.6868 34.0712Z" fill="#4D4B9A"/>
<path d="M85.0868 47.8962C83.3505 47.8962 82.1043 47.2168 81.5844 46.4429C81.2203 45.9019 81.1836 45.2926 81.4846 44.7726C82.3773 43.2265 84.7035 37.0757 84.728 37.0144C84.7963 36.834 84.9975 36.743 85.1796 36.8113C85.3599 36.8796 85.4509 37.0809 85.3826 37.263C85.2863 37.5186 83.0127 43.5312 82.092 45.1245C81.882 45.4887 82.0167 45.8301 82.1673 46.0542C82.6433 46.7616 84.0384 47.4024 85.9725 47.1363C86.1615 47.11 86.34 47.2431 86.3663 47.4357C86.3926 47.6265 86.2595 47.8034 86.067 47.8296C85.7257 47.8769 85.3984 47.8979 85.0886 47.8979L85.0868 47.8962Z" fill="#4D4B9A"/>
<path d="M94.1097 40.9431C94.9459 40.9431 95.6238 40.0777 95.6238 39.0101C95.6238 37.9426 94.9459 37.0771 94.1097 37.0771C93.2736 37.0771 92.5957 37.9426 92.5957 39.0101C92.5957 40.0777 93.2736 40.9431 94.1097 40.9431Z" fill="#4D4B9A"/>
<path d="M79.7815 39.9171C80.5762 39.9171 81.2203 39.0807 81.2203 38.0489C81.2203 37.0171 80.5762 36.1807 79.7815 36.1807C78.9869 36.1807 78.3428 37.0171 78.3428 38.0489C78.3428 39.0807 78.9869 39.9171 79.7815 39.9171Z" fill="#4D4B9A"/>
<path d="M86.1405 53.926C84.0033 53.926 82.6906 52.8615 82.6678 52.8422C82.4823 52.6864 82.4578 52.4115 82.6135 52.2259C82.7676 52.0403 83.0441 52.0158 83.2297 52.1699C83.3662 52.2819 86.536 54.798 91.1989 50.9005C91.3844 50.7464 91.6592 50.7709 91.815 50.9565C91.9691 51.1421 91.9445 51.4187 91.759 51.5728C89.5834 53.3902 87.6545 53.9243 86.1405 53.9243V53.926Z" fill="#4D4B9A"/>
<path d="M81.0312 69.3605C83.4695 72.3598 88.5734 76.4604 97.7644 75.226C106.513 74.0494 111.021 71.0729 113.183 68.9858" stroke="#F6EBF5" stroke-miterlimit="10"/>
<path d="M116.031 97.9419C116.031 97.9419 113.636 115.987 112.863 119.298C112.089 122.609 111.254 121.549 111.254 121.549C107.381 122.234 81.0961 117.853 81.0961 117.853C76.365 128.164 76.7903 134.117 76.7903 134.117C106.231 148.221 121.891 145.361 129.186 141.874C136.482 138.386 141.062 98.0189 137.04 86.2214C133.018 74.4239 117.867 70.5526 113.755 69.1852C109.644 67.8177 107.143 65.1616 106.191 59.2874C105.238 53.4131 107.101 49.4999 107.101 49.4999C107.101 49.4999 103.864 49.5436 107.659 49.4999C111.454 49.4561 114.114 45.9088 114.055 42.3054C113.995 38.7021 111.603 36.7393 109.518 36.9022C106.383 37.1456 107.902 40.1851 105.881 39.3377C104.867 38.9122 104.936 38.0438 102.616 32.1975C99.4605 24.2397 94.6839 25.1519 90.1558 22.0073C86.9089 19.7522 86.7339 19.4422 86.0408 18.4547C85.8867 18.2359 85.3669 17.5285 84.9328 17.6003C84.4987 17.6721 83.9544 18.1851 83.6656 18.8907C83.2963 19.7924 77.6164 23.4063 75.9781 27.4298C74.8247 30.261 71.3013 48.0379 77.5132 57.2021C83.7251 66.3662 94.2568 62.9275 97.1238 61.2939" stroke="#F6EBF5" stroke-miterlimit="10"/>
<path d="M86.1213 63.1479C86.1213 63.1479 86.3243 66.8686 83.6848 68.3709C81.0436 69.8731 75.6036 69.7926 69.4459 74.9893C63.8501 79.7097 58.5956 91.7943 55.3015 98.6841" stroke="#F6EBF5" stroke-miterlimit="10"/>
<path d="M71.7354 89.3081C68.5445 94.531 66.7364 100.547 65.73 106.467" stroke="#F6EBF5" stroke-miterlimit="10"/>
<path d="M126.099 143.106C126.099 143.106 126.403 145.901 126.099 146.169C125.794 146.436 114.023 150.707 102.203 151.365C90.3833 152.024 75.5475 151.188 64.2859 145.505C64.2859 145.505 64.4364 141.086 64.6044 135.415" stroke="#F6EBF5" stroke-miterlimit="10"/>
<path d="M36.4504 115.181C40.0579 121.954 46.9507 133.217 51.6573 135.658C55.4117 137.607 60.6522 136.659 64.6045 135.415" stroke="#F6EBF5" stroke-miterlimit="10"/>
<path d="M67.8829 111.086C67.8829 111.086 64.6781 109.269 61.6658 109.726" stroke="#5858A3" stroke-width="4" stroke-linecap="round" stroke-linejoin="round"/>
<path d="M64.9545 114.696C64.9545 114.696 61.9597 112.865 58.9648 113.332" stroke="#5858A3" stroke-width="4" stroke-linecap="round" stroke-linejoin="round"/>
<path d="M64.1056 119.077C64.1056 119.077 60.5717 116.785 57.2776 118.221" stroke="#5858A3" stroke-width="4" stroke-linecap="round" stroke-linejoin="round"/>
<path d="M55.6708 36.7483H54.8429V35.9691C54.8429 35.752 54.6662 35.5752 54.4491 35.5752C54.2321 35.5752 54.0553 35.752 54.0553 35.9691V36.7483H53.2554C53.0366 36.7483 52.8616 36.9251 52.8616 37.1422C52.8616 37.3594 53.0384 37.5362 53.2554 37.5362H54.0553V38.3153C54.0553 38.5325 54.2321 38.7093 54.4491 38.7093C54.6662 38.7093 54.8429 38.5325 54.8429 38.3153V37.5362H55.6708C55.8896 37.5362 56.0647 37.3594 56.0647 37.1422C56.0647 36.9251 55.8879 36.7483 55.6708 36.7483Z" fill="#F6EBF5"/>
<path d="M40.0929 40.024H39.4943V39.4602C39.4943 39.3026 39.3665 39.1748 39.209 39.1748C39.0515 39.1748 38.9237 39.3026 38.9237 39.4602V40.024H38.3461C38.1886 40.024 38.0608 40.1518 38.0608 40.3094C38.0608 40.467 38.1886 40.5948 38.3461 40.5948H38.9237V41.1586C38.9237 41.3162 39.0515 41.444 39.209 41.444C39.3665 41.444 39.4943 41.3162 39.4943 41.1586V40.5948H40.0929C40.2504 40.5948 40.3782 40.467 40.3782 40.3094C40.3782 40.1518 40.2504 40.024 40.0929 40.024Z" fill="#F6EBF5"/>
<path d="M46.7213 53.9751C46.5515 54.2202 46.3554 54.4478 46.1262 54.6527C44.1185 56.4753 40.6389 55.9116 38.3512 53.3938C36.5028 51.354 36.0005 48.6611 36.9474 46.7404V46.7369C37.168 46.2869 37.4673 45.8772 37.8506 45.5305C39.8617 43.7043 43.3431 44.2681 45.6291 46.7894C47.6559 49.0218 48.062 52.0473 46.7213 53.9751Z" fill="#F6C45C"/>
<path d="M44.9273 47.1169C46.6584 49.1742 47.3428 51.9844 45.7149 53.3553C44.0854 54.7263 41.2341 54.0224 39.503 51.9651C37.772 49.9078 37.2154 47.2447 38.8449 45.8737C40.4745 44.5028 43.198 45.0596 44.9291 47.1169H44.9273Z" fill="#F2AD3C"/>
<path d="M46.7213 53.9752C46.5516 54.2203 46.366 54.462 46.1262 54.6528C43.6968 56.5945 40.611 55.7279 38.3513 53.3939C36.5537 51.5362 35.7958 48.4721 37.1716 46.2905C36.6815 48.0099 36.3314 51.6273 40.8122 54.3972C42.9599 55.7244 45.0235 55.1606 46.7231 53.9752H46.7213Z" fill="#F2AF42"/>
<path d="M57.5245 51.7325C57.7695 51.9023 57.9971 52.0984 58.2019 52.3278C60.0239 54.336 59.4603 57.8168 56.9434 60.1052C54.9042 61.9542 52.2122 62.4567 50.2921 61.5095H50.2886C49.8388 61.2888 49.4292 60.9894 49.0826 60.606C47.2571 58.5942 47.8207 55.1117 50.3411 52.825C52.5728 50.7975 55.5974 50.3913 57.5245 51.7325Z" fill="#F6C45C"/>
<path d="M50.6685 53.5273C52.7251 51.7957 55.5344 51.1111 56.9049 52.7394C58.2754 54.3695 57.5718 57.2217 55.5151 58.9533C53.4585 60.685 50.7963 61.2418 49.4258 59.6117C48.0552 57.9816 48.6118 55.2572 50.6685 53.5256V53.5273Z" fill="#F2AD3C"/>
<path d="M57.5245 51.7322C57.7695 51.9021 58.0111 52.0877 58.2019 52.3275C60.143 54.7578 59.2766 57.8446 56.9434 60.105C55.0863 61.9032 52.0232 62.6613 49.8423 61.2851C51.5611 61.7754 55.1773 62.1255 57.9463 57.6432C59.2731 55.4949 58.7094 53.4306 57.5245 51.7305V51.7322Z" fill="#F2AF42"/>
<path d="M51.3807 31.4395C51.6257 31.6093 51.8533 31.8054 52.0581 32.0348C53.8801 34.0431 53.3165 37.5239 50.7996 39.8123C48.7604 41.6612 46.0684 42.1637 44.1483 41.2165H44.1448C43.695 40.9959 43.2854 40.6965 42.9388 40.313C41.1133 38.3012 41.6769 34.8187 44.1973 32.532C46.429 30.5045 49.4536 30.0983 51.3807 31.4395Z" fill="#F6C45C"/>
<path d="M44.5247 33.2324C46.5813 31.5008 49.3906 30.8162 50.7611 32.4445C52.1316 34.0746 51.428 36.9268 49.3713 38.6584C47.3147 40.3901 44.6525 40.9468 43.282 39.3168C41.9114 37.6867 42.4681 34.9623 44.5247 33.2307V33.2324Z" fill="#F2AD3C"/>
<path d="M51.3807 31.4393C51.6257 31.6091 51.8673 31.7947 52.0581 32.0346C53.9992 34.4648 53.1328 37.5516 50.7996 39.812C48.9425 41.6102 45.8794 42.3683 43.6985 40.9921C45.4173 41.4824 49.0335 41.8326 51.8025 37.3503C53.1293 35.2019 52.5657 33.1376 51.3807 31.4375V31.4393Z" fill="#F2AF42"/>
<path d="M43.5796 54.1575H42.6729V53.3031C42.6729 53.065 42.4804 52.8706 42.2406 52.8706C42.0008 52.8706 41.8082 53.0632 41.8082 53.3031V54.1575H40.9331C40.695 54.1575 40.5007 54.3501 40.5007 54.59C40.5007 54.8299 40.6933 55.0225 40.9331 55.0225H41.8082V55.8769C41.8082 56.115 42.0008 56.3094 42.2406 56.3094C42.4804 56.3094 42.6729 56.1168 42.6729 55.8769V55.0225H43.5796C43.8176 55.0225 44.0119 54.8299 44.0119 54.59C44.0119 54.3501 43.8194 54.1575 43.5796 54.1575Z" fill="#F6EBF5"/>
</g>
<defs>
<clipPath id="clip0_53_5564">
<rect width="134.795" height="144.904" fill="white" transform="translate(5.05469 6.73975)"/>
</clipPath>
</defs>
</svg>
